<?xml version="1.0" standalone="no"?>
<!DOCTYPE svg PUBLIC "-//W3C//DTD SVG 20010904//EN"
 "http://www.w3.org/TR/2001/REC-SVG-20010904/DTD/svg10.dtd">
<svg version="1.0" xmlns="http://www.w3.org/2000/svg"
 width="702.000000pt" height="975.000000pt" viewBox="0 0 702.000000 975.000000"
 preserveAspectRatio="xMidYMid meet">

<g transform="translate(0.000000,975.000000) scale(0.100000,-0.100000)"
fill="#000000" stroke="none">
<path d="M3511 9726 c-17 -18 -35 -25 -82 -28 -39 -3 -69 -11 -87 -25 -25 -18
-27 -27 -30 -96 l-3 -75 -102 -7 c-56 -4 -147 -5 -202 -3 l-100 3 -3 -268 -2
-269 124 8 c68 3 149 3 180 0 l56 -7 0 -70 c0 -67 1 -69 25 -69 16 0 25 -6 25
-15 0 -11 -12 -15 -49 -15 -28 0 -53 -4 -56 -10 -3 -5 -46 -10 -96 -10 -53 0
-89 4 -89 10 0 6 -27 10 -60 10 l-60 0 0 -290 0 -290 60 0 c33 0 60 4 60 10 0
6 36 10 89 10 50 0 93 -4 96 -10 3 -5 28 -10 56 -10 l49 0 0 -131 0 -130 -51
-55 c-29 -30 -57 -54 -62 -54 -6 0 -32 18 -58 40 -62 52 -92 53 -118 3 -10
-21 -31 -51 -45 -66 -53 -58 -52 -173 5 -292 32 -70 152 -204 228 -256 l50
-34 1 -62 c0 -56 2 -63 20 -63 11 0 20 -1 21 -2 0 -2 3 -222 6 -490 l4 -488
-211 0 -210 0 2 -302 3 -303 23 -3 c17 -3 22 -10 22 -33 0 -24 4 -29 25 -29
20 0 25 5 25 25 0 14 8 29 19 35 11 5 83 10 160 10 l141 0 0 -110 0 -110 -465
0 c-407 0 -465 2 -465 15 0 8 -4 15 -10 15 -5 0 -10 -7 -10 -15 0 -11 -19 -15
-92 -17 -79 -3 -93 -6 -96 -20 -3 -16 6 -18 77 -18 l81 0 0 -30 0 -30 -516 0
c-408 1 -521 -2 -536 -12 -18 -12 -20 -25 -19 -169 l2 -156 -29 -6 c-26 -5
-28 -8 -26 -54 2 -41 5 -49 25 -53 l24 -6 3 -232 c2 -202 0 -232 -13 -232 -12
0 -15 18 -15 103 0 56 -4 107 -8 113 -19 29 -190 43 -293 24 -72 -14 -80 -27
-78 -128 1 -52 -2 -87 -10 -95 -6 -6 -11 -39 -11 -74 0 -48 4 -64 18 -72 15
-10 15 -13 -10 -32 -23 -17 -28 -29 -28 -63 0 -34 5 -45 22 -55 40 -21 48 -55
48 -207 0 -117 -3 -143 -15 -148 -22 -8 -22 -377 0 -396 20 -16 22 -216 3
-222 -8 -3 -11 -20 -10 -45 3 -33 0 -42 -15 -45 -14 -3 -17 -11 -15 -45 3 -37
1 -42 -20 -45 -23 -3 -23 -5 -26 -147 -3 -162 -3 -161 66 -161 l43 0 -7 -118
c-6 -105 -5 -120 10 -125 13 -5 16 -22 16 -96 0 -89 -1 -91 -25 -97 -24 -6
-26 -10 -23 -53 3 -39 6 -46 26 -49 30 -5 28 -22 -3 -22 -25 0 -25 -1 -25 -90
0 -89 0 -90 25 -90 14 0 25 -4 25 -10 0 -5 -11 -10 -25 -10 -23 0 -25 -3 -25
-50 0 -47 2 -50 25 -50 21 0 25 -5 25 -30 0 -23 6 -33 25 -40 21 -8 25 -16 25
-49 0 -22 4 -42 10 -46 5 -3 7 -21 5 -39 -3 -22 1 -38 10 -46 22 -18 18 -28
-12 -32 -26 -3 -28 -7 -29 -48 0 -43 -2 -45 -35 -50 -32 -5 -34 -8 -37 -48 -2
-23 -7 -42 -12 -42 -6 0 -11 172 -12 428 l-3 427 -405 0 c-223 0 -413 -3 -423
-7 -16 -7 -17 -62 -17 -1027 1 -884 3 -1021 15 -1029 8 -4 52 -4 97 1 46 5 99
8 118 7 49 -3 81 -3 110 -1 14 2 70 -2 125 -7 66 -6 131 -6 190 0 88 10 114
11 165 6 l25 -3 3 428 c1 273 6 427 12 427 6 0 10 -17 10 -38 0 -45 14 -62 53
-62 27 0 28 -2 25 -42 -2 -41 -1 -43 27 -48 18 -3 30 -11 30 -20 0 -12 16 -14
93 -11 79 3 92 1 92 -13 0 -24 158 -24 167 0 5 14 18 15 95 9 76 -6 88 -4 88
9 0 10 9 16 24 16 13 0 26 7 30 15 3 8 14 15 24 15 18 0 19 8 17 126 l-1 127
-37 16 c-37 16 -37 16 -37 74 0 34 4 56 9 52 6 -3 13 1 18 9 4 7 17 15 28 18
19 3 20 11 20 133 -1 126 -1 130 -23 133 -12 2 -22 8 -22 13 0 5 -11 9 -25 9
-27 0 -34 15 -10 24 10 3 15 19 15 44 0 21 5 43 10 48 7 7 9 198 8 555 l-3
544 -50 3 c-27 2 -54 7 -60 13 -5 5 -56 9 -115 9 l-105 0 0 90 c0 67 3 90 13
90 9 0 12 14 10 48 -3 40 -6 47 -26 50 -19 3 -22 9 -22 52 0 27 -4 52 -10 55
-17 10 -13 208 5 231 22 29 22 382 0 390 -12 5 -15 26 -15 105 0 99 0 99 25
99 29 0 35 -33 8 -48 -23 -13 -23 -71 0 -78 14 -4 17 -16 16 -59 -3 -73 9 -85
82 -85 46 0 59 -3 59 -15 0 -11 11 -15 35 -15 22 0 38 6 41 15 5 13 45 15 270
15 228 0 264 -2 264 -15 0 -11 11 -15 35 -15 22 0 38 6 41 15 5 11 23 15 79
15 78 0 72 5 94 -64 5 -15 16 -19 56 -19 43 0 50 3 53 21 3 20 9 21 85 19 45
-1 94 1 109 6 24 6 27 4 30 -19 3 -25 6 -27 53 -27 45 0 50 2 53 24 2 20 8 24
35 22 18 -1 53 -2 80 -2 35 -1 47 -5 47 -16 0 -10 11 -15 35 -15 24 0 35 5 35
14 0 11 20 15 91 18 50 2 93 1 95 -1 2 -2 4 -130 4 -283 l0 -278 25 0 c17 0
25 -5 25 -17 0 -25 64 -24 68 0 2 10 7 17 12 17 5 0 10 -7 12 -17 4 -23 65
-24 72 0 4 15 21 17 179 17 155 0 176 -2 179 -17 5 -25 65 -24 73 2 6 19 6 19
14 1 10 -26 72 -29 79 -4 2 10 13 18 23 18 18 0 19 12 19 278 0 153 2 281 4
283 2 2 45 3 95 1 71 -3 91 -7 91 -18 0 -22 66 -19 72 4 4 14 16 17 79 16 60
-1 74 -5 74 -17 0 -24 11 -30 57 -30 37 0 43 3 48 24 6 25 42 33 68 15 11 -8
101 -4 142 5 8 2 15 -3 16 -11 0 -8 2 -20 2 -25 1 -6 23 -10 49 -9 37 2 49 6
54 20 23 69 14 64 105 64 68 0 84 -3 84 -15 0 -10 11 -15 35 -15 24 0 35 5 35
15 0 13 37 15 270 15 233 0 270 -2 270 -15 0 -10 11 -15 35 -15 24 0 35 5 35
15 0 12 13 15 59 15 71 0 83 11 85 82 1 40 5 55 19 60 23 10 23 64 0 76 -9 6
-17 19 -18 31 -1 17 4 21 27 21 l28 0 0 -92 c0 -68 -4 -96 -15 -109 -13 -14
-16 -48 -16 -199 0 -117 4 -186 11 -195 16 -19 18 -224 3 -230 -8 -2 -13 -22
-13 -45 0 -30 -4 -40 -16 -40 -14 0 -15 -14 -11 -114 3 -63 8 -119 11 -124 4
-6 2 -13 -3 -16 -5 -3 -7 -15 -4 -26 5 -19 0 -20 -104 -20 -60 0 -113 -4 -118
-9 -6 -6 -32 -11 -60 -13 l-50 -3 -2 -547 c-2 -348 1 -549 7 -553 6 -3 10 -22
10 -42 0 -22 7 -41 18 -49 16 -12 15 -13 -5 -14 -12 0 -26 -6 -30 -14 -4 -8
-17 -15 -27 -17 -18 -4 -20 -14 -21 -132 -1 -125 0 -128 22 -133 13 -4 23 -10
23 -15 0 -5 6 -9 14 -9 9 0 15 -14 18 -38 4 -51 -1 -72 -18 -72 -8 0 -14 -6
-14 -14 0 -8 -10 -16 -22 -18 -21 -3 -22 -7 -22 -128 0 -121 1 -125 22 -128
12 -2 22 -8 22 -13 0 -5 11 -9 25 -9 19 0 25 -5 25 -21 0 -20 3 -20 88 -14 77
6 90 5 95 -9 9 -24 165 -24 174 0 5 14 18 16 90 10 80 -7 85 -6 90 13 4 15 13
21 34 21 28 0 29 2 29 45 0 40 3 45 23 45 36 0 45 12 44 58 -1 27 2 42 10 42
10 0 13 -96 15 -427 l3 -428 205 -3 c294 -5 517 -2 580 6 l55 7 3 1014 c1 715
-1 1018 -9 1027 -14 17 -806 19 -826 2 -10 -8 -13 -101 -13 -429 0 -381 -1
-419 -16 -419 -14 0 -16 8 -12 45 l6 45 -34 0 c-32 0 -33 1 -36 47 -3 44 -5
48 -30 51 -31 4 -37 19 -12 29 11 4 15 17 12 46 -1 25 2 42 10 45 7 2 12 21
12 42 0 29 5 42 20 50 13 7 20 21 20 40 0 25 4 30 25 30 23 0 25 3 25 50 0 47
-2 50 -25 50 -14 0 -25 5 -25 10 0 6 11 10 25 10 25 0 25 1 25 90 0 89 0 90
-25 90 -14 0 -25 5 -25 10 0 6 11 10 26 10 24 0 25 2 22 52 -3 46 -6 53 -25
56 -22 3 -23 8 -23 92 0 73 3 91 17 98 14 8 15 24 10 125 l-7 116 52 3 53 3 3
140 c1 79 -2 149 -7 160 -6 11 -11 31 -13 45 -2 18 -10 26 -28 28 -23 3 -25 6
-23 53 1 36 -2 52 -13 56 -21 8 -20 205 1 223 12 10 15 45 15 200 0 155 -3
190 -15 200 -12 10 -15 40 -15 149 0 147 8 183 48 200 18 9 22 19 22 55 0 33
-5 48 -19 58 -10 7 -21 25 -22 38 -3 21 1 26 24 28 27 3 28 6 25 50 -3 40 -6
47 -25 50 -21 3 -22 8 -25 110 l-3 107 -30 15 c-42 21 -268 21 -310 0 -30 -15
-30 -16 -33 -113 -2 -68 -6 -97 -15 -97 -9 0 -11 54 -10 222 l2 223 23 5 c20
5 23 13 24 53 2 44 0 48 -25 53 l-26 6 0 154 c0 209 23 193 -290 193 -132 0
-360 0 -507 0 l-268 1 0 25 c0 23 3 24 78 27 60 2 77 6 77 18 0 12 -18 16 -92
18 -74 2 -93 6 -93 17 0 8 -4 15 -10 15 -5 0 -10 -7 -10 -15 0 -13 -46 -15
-355 -15 l-355 0 0 110 0 110 138 0 c169 0 182 -3 182 -41 0 -24 4 -29 25 -29
21 0 25 5 25 29 0 23 5 30 23 33 l22 3 3 303 2 302 -209 0 -210 0 4 473 c2
259 4 480 4 490 1 10 9 17 21 17 19 0 20 7 20 90 0 87 -1 90 -22 90 -22 0 -23
4 -23 80 0 76 1 80 23 80 21 0 22 3 22 95 l0 95 -26 0 -26 0 7 78 c9 88 30
137 74 170 25 18 31 30 31 60 0 45 -25 101 -74 169 -20 28 -36 60 -36 72 0 19
6 21 49 21 28 0 53 5 56 10 3 6 46 10 95 10 49 0 92 -4 95 -10 3 -5 31 -10 61
-10 l54 0 0 290 0 290 -54 0 c-30 0 -58 -4 -61 -10 -3 -5 -46 -10 -95 -10 -49
0 -92 5 -95 10 -3 6 -28 10 -56 10 -37 0 -49 4 -49 15 0 9 9 15 25 15 24 0 25
2 25 69 l0 70 56 7 c31 3 112 3 180 0 l124 -8 0 272 0 272 -106 -7 c-58 -4
-150 -4 -205 0 l-99 7 0 72 c0 95 -19 116 -114 123 -51 5 -70 11 -87 29 -20
22 -31 24 -114 24 -84 0 -93 -2 -114 -24z m99 -161 c0 -151 -2 -165 -17 -165
-10 0 -26 7 -35 14 -16 12 -18 32 -18 165 l0 151 35 0 35 0 0 -165z m100 10
c0 -142 -1 -155 -19 -165 -11 -5 -28 -10 -38 -10 -17 0 -18 12 -17 158 1 86 2
160 3 165 0 4 17 7 36 7 l35 0 0 -155z m-180 2 c0 -74 -3 -136 -6 -140 -3 -3
-12 -3 -20 0 -11 4 -14 32 -14 127 0 116 7 146 32 146 4 0 8 -60 8 -133z m230
-12 c0 -100 -3 -124 -15 -129 -13 -5 -15 14 -15 136 0 124 2 139 15 128 12
-10 15 -38 15 -135z m-300 4 c0 -84 -3 -110 -12 -107 -9 3 -14 37 -16 111 -2
91 0 107 13 107 13 0 15 -18 15 -111z m358 4 c-2 -74 -7 -108 -15 -111 -10 -3
-13 23 -13 107 0 93 2 111 15 111 13 0 15 -16 13 -107z m-408 2 c0 -78 -3 -95
-15 -95 -12 0 -15 17 -15 95 0 78 3 95 15 95 12 0 15 -17 15 -95z m460 0 c0
-78 -3 -95 -15 -95 -12 0 -15 17 -15 95 0 78 3 95 15 95 12 0 15 -17 15 -95z
m-521 -111 c-21 -26 -24 -15 -21 73 5 125 26 145 30 29 2 -56 -1 -93 -9 -102z
m571 83 c3 -54 3 -97 0 -97 -21 0 -30 33 -30 113 0 66 3 88 13 85 8 -3 14 -37
17 -101z m-610 -107 l0 -35 -200 0 -200 -1 0 31 c0 18 2 34 4 36 2 2 92 4 200
4 l196 0 0 -35z m1028 -1 l3 -35 -201 1 -200 0 0 31 c0 17 2 33 4 35 2 2 91 4
198 4 l193 -1 3 -35z m-903 9 l25 -11 0 -139 0 -138 -40 0 -40 0 0 150 c0 162
0 163 55 138z m435 -138 l0 -150 -40 0 -40 0 0 138 c0 134 1 139 23 150 56 27
57 25 57 -138z m-514 -157 c-3 -7 -11 -13 -17 -13 -8 0 -8 4 1 15 10 12 10 19
2 27 -9 9 -9 15 0 25 8 10 8 17 0 25 -9 9 -9 15 0 25 8 10 8 17 0 25 -8 8 -7
16 0 28 9 14 8 22 -5 35 -9 9 -17 22 -17 28 0 8 3 7 9 -2 7 -10 10 -10 16 -1
5 8 1 16 -9 22 -16 9 -16 11 1 30 18 20 18 16 21 -118 1 -76 0 -144 -2 -151z
m558 271 c3 -8 3 -27 0 -40 -5 -21 -3 -23 12 -17 18 6 18 6 2 -10 -14 -14 -16
-35 -15 -117 1 -63 -2 -99 -8 -97 -13 5 -19 297 -6 297 5 0 12 -7 15 -16z
m-359 -31 c34 -22 117 -16 169 13 l46 26 0 -136 0 -136 -145 0 -145 0 0 135 0
135 28 -12 c15 -7 36 -18 47 -25z m-345 -33 l0 -30 -95 0 -95 0 0 30 0 30 95
0 95 0 0 -30z m1025 3 l0 -28 -97 -3 -98 -3 0 31 0 30 98 0 98 0 -1 -27z
m-1235 7 c0 -5 -20 -10 -45 -10 -25 0 -45 5 -45 10 0 6 20 10 45 10 25 0 45
-4 45 -10z m300 0 c0 -5 -18 -10 -40 -10 -22 0 -40 5 -40 10 0 6 18 10 40 10
22 0 40 -4 40 -10z m730 0 c0 -5 -18 -10 -40 -10 -22 0 -40 5 -40 10 0 6 18
10 40 10 22 0 40 -4 40 -10z m310 0 c0 -5 -20 -10 -45 -10 -25 0 -45 5 -45 10
0 6 20 10 45 10 25 0 45 -4 45 -10z m-1038 -203 c3 -111 2 -117 -16 -115 -14
2 -22 -4 -26 -21 -7 -29 -28 -39 -36 -17 -9 24 -224 24 -224 0 0 -12 -9 -14
-42 -12 l-43 3 -3 168 -2 167 40 0 c24 0 48 -7 56 -15 21 -21 199 -22 211 -1
4 8 24 16 43 18 41 4 38 15 42 -175z m734 158 c12 -11 39 -15 104 -15 65 0 92
4 104 15 8 8 32 15 56 15 l40 0 -2 -167 -3 -168 -42 -3 c-34 -2 -43 0 -43 12
0 14 -17 16 -110 16 -93 0 -110 -2 -110 -16 0 -9 -7 -14 -17 -12 -10 2 -18 11
-18 20 0 19 -12 33 -28 33 -17 0 -17 1 -17 150 l0 135 36 0 c19 0 42 -7 50
-15z m-574 -190 c3 -3 3 -17 0 -30 -4 -23 -6 -24 -25 -10 -12 8 -29 15 -39 15
-10 0 -18 7 -18 15 0 11 11 15 38 15 21 0 41 -2 44 -5z m48 -14 c-16 -32 -30
-34 -30 -7 0 19 5 26 20 26 17 0 19 -3 10 -19z m260 -6 c0 -14 -2 -25 -4 -25
-2 0 -11 11 -20 25 -16 24 -16 25 4 25 15 0 20 -7 20 -25z m100 10 c0 -8 -8
-15 -17 -15 -9 0 -27 -10 -40 -22 l-23 -21 0 36 c0 36 1 37 40 37 29 0 40 -4
40 -15z m-520 -30 c-21 -25 -32 -17 -13 9 10 13 20 20 21 15 2 -5 -2 -16 -8
-24z m360 5 l0 -30 -85 0 -85 0 0 30 0 30 85 0 85 0 0 -30z m215 -19 c-8 -8
-35 22 -35 38 0 12 5 10 20 -9 10 -14 17 -27 15 -29z m-395 0 c0 -20 -27 -48
-37 -37 -8 7 17 56 29 56 4 0 8 -8 8 -19z m216 2 c7 -10 14 -24 14 -32 0 -20
-26 4 -33 29 -6 25 2 26 19 3z m-336 -553 c0 -491 -2 -560 -15 -560 -13 0 -15
69 -15 560 0 491 2 560 15 560 13 0 15 -69 15 -560z m460 0 c0 -489 -1 -555
-15 -558 -13 -3 -15 60 -15 558 0 498 2 561 15 558 14 -3 15 -69 15 -558z
m-510 0 c0 -475 -2 -539 -15 -534 -13 5 -15 73 -15 528 0 499 2 546 27 546 2
0 3 -243 3 -540z m100 105 c1 -681 2 -632 -15 -639 -13 -5 -15 59 -15 536 0
483 2 541 15 527 13 -13 15 -73 15 -424z m360 -106 c0 -480 -2 -540 -15 -529
-13 11 -15 82 -15 529 0 494 2 541 27 541 2 0 3 -244 3 -541z m108 1 c4 -512
2 -540 -29 -540 -5 0 -9 238 -9 542 0 506 1 541 17 526 15 -15 17 -68 21 -528z
m-218 -25 l0 -555 -85 0 -85 0 0 555 0 555 85 0 85 0 0 -555z m-408 520 c0 -5
-5 -11 -11 -13 -6 -2 -11 4 -11 13 0 9 5 15 11 13 6 -2 11 -8 11 -13z m228
-515 c0 -347 -3 -530 -10 -530 -7 0 -10 183 -10 530 0 347 3 530 10 530 7 0
10 -183 10 -530z m210 -5 c0 -294 -3 -535 -7 -535 -5 0 -8 241 -8 535 0 294 3
535 8 535 4 0 7 -241 7 -535z m230 520 c0 -8 -4 -15 -9 -15 -13 0 -22 16 -14
24 11 11 23 6 23 -9z m-760 -20 c0 -12 -17 -15 -95 -15 -78 0 -95 3 -95 15 0
12 17 15 95 15 78 0 95 -3 95 -15z m1023 0 c1 -6 -37 -11 -95 -13 -84 -2 -98
0 -98 13 0 13 14 15 95 13 53 -2 96 -7 98 -13z m-926 -11 c-3 -3 -12 -4 -19
-1 -8 3 -5 6 6 6 11 1 17 -2 13 -5z m-324 -11 c-13 -2 -33 -2 -45 0 -13 2 -3
4 22 4 25 0 35 -2 23 -4z m1335 0 c-10 -2 -28 -2 -40 0 -13 2 -5 4 17 4 22 1
32 -1 23 -4z m-1011 -19 c-3 -3 -12 -4 -19 -1 -8 3 -5 6 6 6 11 1 17 -2 13 -5z
m3 -34 c0 -5 -7 -10 -15 -10 -8 0 -15 5 -15 10 0 6 7 10 15 10 8 0 15 -4 15
-10z m660 0 c0 -5 -4 -10 -10 -10 -5 0 -10 5 -10 10 0 6 5 10 10 10 6 0 10 -4
10 -10z m-670 -30 c0 -5 -4 -10 -10 -10 -5 0 -10 5 -10 10 0 6 5 10 10 10 6 0
10 -4 10 -10z m10 -45 c0 -8 -7 -15 -15 -15 -8 0 -15 7 -15 15 0 8 7 15 15 15
8 0 15 -7 15 -15z m664 0 c-4 -8 -12 -15 -20 -15 -8 0 -14 7 -14 15 0 8 9 15
20 15 13 0 18 -5 14 -15z m-969 -95 c3 -6 52 -10 110 -10 58 0 107 4 110 10 3
6 24 10 46 10 l39 0 0 -85 0 -85 -44 0 c-25 0 -48 5 -51 10 -3 6 -50 10 -105
10 -55 0 -102 -4 -105 -10 -3 -5 -26 -10 -51 -10 l-44 0 0 78 c0 43 3 82 7 85
10 11 81 8 88 -3z m1025 0 c0 -6 43 -10 110 -10 67 0 110 4 110 10 0 6 20 10
45 10 l45 0 0 -85 0 -85 -44 0 c-25 0 -48 5 -51 10 -3 6 -50 10 -105 10 -55 0
-102 -4 -105 -10 -3 -5 -26 -10 -51 -10 l-44 0 0 85 0 85 45 0 c25 0 45 -4 45
-10z m-820 -195 l0 -35 -95 0 -95 0 0 35 0 35 95 0 95 0 0 -35z m1026 3 l-2
-33 -97 -3 -97 -3 0 36 0 35 99 0 99 0 -2 -32z m-1236 7 c0 -11 -12 -15 -45
-15 -42 0 -54 7 -38 23 3 4 24 7 45 7 27 0 38 -4 38 -15z m310 0 c0 -11 -12
-15 -45 -15 -42 0 -54 7 -38 23 3 4 24 7 45 7 27 0 38 -4 38 -15z m720 0 c0
-11 -12 -15 -45 -15 -33 0 -45 4 -45 15 0 11 12 15 45 15 33 0 45 -4 45 -15z
m308 -2 c2 -9 -10 -13 -42 -13 -35 0 -46 4 -46 16 0 12 9 14 42 12 23 -2 43
-9 46 -15z m-1338 -43 c0 -6 43 -10 110 -10 67 0 110 4 110 10 0 6 20 10 45
10 l45 0 0 -150 0 -150 -44 0 c-30 0 -46 5 -50 15 -4 12 -25 15 -100 15 -71 0
-98 -4 -110 -15 -8 -8 -32 -15 -55 -15 l-41 0 0 150 0 150 45 0 c25 0 45 -4
45 -10z m1030 0 c0 -6 43 -10 110 -10 67 0 110 4 110 10 0 6 20 10 45 10 l45
0 0 -150 0 -150 -41 0 c-23 0 -47 7 -55 15 -12 11 -39 15 -110 15 -75 0 -96
-3 -100 -15 -4 -10 -20 -15 -50 -15 l-44 0 0 150 0 150 45 0 c25 0 45 -4 45
-10z m-872 -287 c-27 -2 -69 -2 -95 0 -27 2 -5 3 47 3 52 0 74 -1 48 -3z
m1030 0 c-27 -2 -69 -2 -95 0 -27 2 -5 3 47 3 52 0 74 -1 48 -3z m-177 -221
c10 -24 19 -55 19 -69 0 -25 -1 -25 -18 -10 -26 24 -35 21 -30 -8 5 -26 1 -29
-26 -19 -23 9 -20 51 4 57 13 3 20 14 20 29 0 13 -9 41 -20 63 -11 22 -20 46
-20 54 0 21 48 -45 71 -97z m-51 -9 c0 -13 -4 -23 -10 -23 -5 0 -10 17 -10 38
0 27 3 33 10 22 5 -8 10 -25 10 -37z m-193 5 c-3 -8 -6 -5 -6 6 -1 11 2 17 5
13 3 -3 4 -12 1 -19z m-407 -194 c0 -123 -2 -143 -15 -138 -12 5 -15 32 -15
156 0 133 2 149 15 138 12 -10 15 -41 15 -156z m88 -135 c-19 -12 -24 267 -6
289 11 12 13 -11 16 -133 2 -112 -1 -150 -10 -156z m372 135 c0 -123 -2 -143
-15 -138 -12 5 -15 32 -15 156 0 133 2 149 15 138 12 -10 15 -41 15 -156z
m109 24 c-1 -133 -8 -168 -30 -168 -5 0 -9 64 -9 143 0 137 6 167 32 167 4 0
7 -64 7 -142z m-173 -319 c-14 -31 -15 -16 -16 197 0 171 3 233 13 243 20 20
23 -394 3 -440z m-236 189 c0 -120 -4 -218 -8 -218 -23 0 -32 77 -32 270 0
202 0 203 20 185 19 -17 20 -31 20 -237z m-110 97 c0 -122 -2 -145 -15 -145
-13 0 -15 23 -15 145 0 122 2 145 15 145 13 0 15 -23 15 -145z m460 0 c0 -122
-2 -145 -15 -145 -13 0 -15 23 -15 145 0 122 2 145 15 145 13 0 15 -23 15
-145z m-150 -145 l0 -261 -92 3 -93 3 -3 245 c-1 134 0 250 3 257 3 9 31 13
95 13 l90 0 0 -260z m-410 233 c-2 -21 -100 -109 -100 -90 0 7 84 94 93 96 4
0 7 -2 7 -6z m-213 -40 c4 -21 8 -65 7 -98 -1 -64 -29 -175 -45 -175 -5 0 -9
66 -9 155 0 147 1 155 20 155 14 0 21 -10 27 -37z m63 -24 c31 -27 33 -31 18
-40 -24 -14 -23 -74 2 -149 14 -42 18 -72 14 -100 -4 -22 -9 -40 -11 -40 -2 0
-26 18 -52 40 l-48 40 19 57 c20 59 27 162 14 201 -10 30 2 27 44 -9z m-125
-277 c-3 -7 -9 -10 -15 -7 -5 3 -10 1 -10 -6 0 -8 -3 -9 -9 -3 -14 14 -31 109
-31 169 0 45 6 62 33 101 l32 46 3 -143 c1 -79 0 -149 -3 -157z m218 225 c-3
-19 2 -49 11 -71 18 -44 20 -60 6 -51 -5 3 -17 30 -25 60 -12 41 -13 59 -5 75
15 29 20 25 13 -13z m-44 -141 c6 -16 9 -31 6 -34 -17 -17 -54 146 -39 170 6
8 11 -8 15 -47 4 -33 12 -73 18 -89z m35 36 c14 -26 14 -32 1 -42 -12 -10 -16
-8 -24 12 -15 40 -24 116 -15 130 6 9 11 -1 16 -29 3 -23 14 -55 22 -71z m63
36 c-3 -22 -4 -21 -11 4 -5 16 -5 36 0 45 7 16 8 15 11 -4 3 -13 3 -33 0 -45z
m53 -625 c0 -447 -3 -564 -12 -561 -16 6 -23 97 -9 111 14 14 14 54 1 62 -14
9 -13 85 1 85 7 0 9 11 5 33 -17 78 -18 107 -6 107 8 0 10 10 6 30 -3 17 -9
44 -12 61 -4 18 -1 41 6 55 10 18 11 30 2 49 -15 33 -15 85 -1 85 7 0 9 11 5
33 -16 78 -17 95 -7 101 14 9 14 53 1 61 -14 9 -13 61 2 84 9 15 9 25 0 46 -7
14 -12 50 -12 80 0 44 3 53 15 49 13 -5 15 -78 15 -571z m89 546 c-9 -5 -15
-4 -18 2 -2 6 3 15 10 20 9 5 15 4 18 -2 2 -6 -3 -15 -10 -20z m371 5 c0 -8
-6 -11 -15 -8 -8 4 -15 12 -15 20 0 8 6 11 15 8 8 -4 15 -12 15 -20z m109 -31
c0 -31 -3 -62 -8 -67 -17 -22 -20 -57 -5 -63 16 -6 19 -59 4 -68 -12 -8 -13
-75 -1 -75 9 0 8 -17 -5 -91 -3 -22 -2 -39 5 -43 13 -9 15 -53 2 -60 -15 -10
-18 -66 -4 -77 15 -13 17 -55 3 -64 -5 -3 -10 -21 -10 -40 0 -19 5 -37 10 -40
6 -3 10 -19 10 -35 0 -16 -4 -32 -10 -35 -5 -3 -10 -19 -10 -35 0 -16 5 -32
10 -35 12 -8 13 -62 1 -69 -14 -9 -19 -67 -6 -72 16 -7 19 -96 3 -106 -7 -4
-16 -8 -20 -8 -5 0 -8 254 -8 564 0 566 0 571 31 575 4 1 7 -25 8 -56z m-519
24 c0 -7 11 -28 25 -47 l25 -34 0 -518 0 -518 -40 0 -40 0 0 565 c0 496 2 565
15 565 8 0 15 -6 15 -13z m460 -552 l0 -565 -40 0 -40 0 0 550 c1 505 2 550
17 550 13 0 14 -3 5 -12 -7 -7 -12 -17 -12 -22 1 -16 40 34 40 50 0 8 7 14 15
14 13 0 15 -69 15 -565z m-610 512 c0 -16 -9 -28 -25 -35 -30 -14 -32 -3 -4
32 25 32 29 32 29 3z m200 7 c0 -8 -4 -12 -10 -9 -5 3 -10 10 -10 16 0 5 5 9
10 9 6 0 10 -7 10 -16z m-153 0 c-3 -3 -12 -4 -19 -1 -8 3 -5 6 6 6 11 1 17
-2 13 -5z m660 0 c-3 -3 -12 -4 -19 -1 -8 3 -5 6 6 6 11 1 17 -2 13 -5z m-660
-69 c-1 -36 -6 -55 -14 -55 -9 0 -13 18 -13 55 0 41 4 55 14 55 11 0 14 -14
13 -55z m663 0 c0 -30 -4 -55 -10 -55 -5 0 -10 11 -10 24 0 13 -3 38 -6 55 -5
24 -3 31 10 31 13 0 16 -11 16 -55z m-764 -55 c6 0 17 7 24 15 18 22 28 18 32
-12 2 -20 9 -29 26 -31 20 -3 21 -7 16 -45 -4 -23 -8 -43 -9 -44 -1 -3 -199
158 -224 182 -7 7 -10 18 -7 24 5 7 30 -8 69 -39 34 -28 67 -50 73 -50z m54
63 c0 -5 -12 -16 -25 -26 -21 -15 -25 -15 -25 -3 0 8 8 20 18 25 21 12 32 14
32 4z m67 -35 c-3 -7 -5 -2 -5 12 0 14 2 19 5 13 2 -7 2 -19 0 -25z m-124 -92
c114 -93 130 -120 77 -128 -25 -4 -39 4 -84 44 -78 69 -83 58 -6 -14 36 -33
47 -47 25 -30 -48 36 -102 92 -90 92 5 0 -11 21 -36 48 -48 49 -64 78 -50 87
5 2 14 -2 21 -10 7 -8 17 -15 23 -15 5 0 2 10 -9 23 -22 26 -39 38 129 -97z
m737 105 c0 -6 -4 -13 -10 -16 -5 -3 -10 1 -10 9 0 9 5 16 10 16 6 0 10 -4 10
-9z m-425 -94 l6 -28 106 3 106 3 12 48 c7 26 15 50 18 54 4 3 7 -217 7 -490
l0 -497 -145 0 -145 0 1 498 c0 430 2 493 14 467 8 -16 16 -43 20 -58z m-188
-49 c-3 -8 -6 -5 -6 6 -1 11 2 17 5 13 3 -3 4 -12 1 -19z m610 7 c0 -8 -4 -15
-9 -15 -4 0 -8 7 -8 15 0 8 4 15 8 15 5 0 9 -7 9 -15z m-610 -147 c-3 -8 -6
-5 -6 6 -1 11 2 17 5 13 3 -3 4 -12 1 -19z m613 13 c0 -6 -4 -13 -10 -16 -5
-3 -10 1 -10 9 0 9 5 16 10 16 6 0 10 -4 10 -9z m-634 -46 c7 -48 1 -75 -16
-75 -6 0 -10 25 -10 60 0 70 16 80 26 15z m664 -17 c0 -58 -1 -61 -16 -46 -13
13 -15 26 -10 62 10 66 26 56 26 -16z m-643 -90 c-3 -7 -5 -2 -5 12 0 14 2 19
5 13 2 -7 2 -19 0 -25z m605 0 c-9 -9 -12 -7 -12 12 0 19 3 21 12 12 9 -9 9
-15 0 -24z m-605 -140 c-3 -7 -5 -2 -5 12 0 14 2 19 5 13 2 -7 2 -19 0 -25z
m606 7 c-7 -21 -13 -19 -13 6 0 11 4 18 10 14 5 -3 7 -12 3 -20z m-606 -147
c-3 -8 -6 -5 -6 6 -1 11 2 17 5 13 3 -3 4 -12 1 -19z m607 7 c-4 -8 -8 -15
-10 -15 -2 0 -4 7 -4 15 0 8 4 15 10 15 5 0 7 -7 4 -15z m-607 -157 c-3 -7 -5
-2 -5 12 0 14 2 19 5 13 2 -7 2 -19 0 -25z m606 17 c4 -8 2 -17 -3 -20 -6 -4
-10 3 -10 14 0 25 6 27 13 6z m-575 -200 c3 -25 2 -27 -12 -16 -19 16 -22 55
-3 49 6 -3 14 -17 15 -33z m572 22 c0 -8 -9 -22 -20 -32 -20 -18 -20 -17 -20
8 0 23 10 34 33 36 4 1 7 -5 7 -12z m-470 -32 c0 -34 -1 -35 -40 -35 -39 0
-40 1 -40 35 0 34 1 35 40 35 39 0 40 -1 40 -35z m70 28 c0 -10 -32 -43 -42
-43 -4 0 -8 11 -8 25 0 20 5 25 25 25 14 0 25 -3 25 -7z m240 -19 c0 -30 -16
-28 -38 4 -14 21 -13 22 12 22 21 0 26 -5 26 -26z m102 -4 c6 -38 3 -40 -44
-40 -37 0 -38 1 -38 35 0 34 1 35 39 35 35 0 39 -3 43 -30z m-162 -385 l0
-395 -85 0 -85 0 0 388 c0 214 3 392 7 395 3 4 42 7 85 7 l78 0 0 -395z m-180
-8 c0 -206 -3 -376 -6 -380 -3 -3 -12 -3 -20 0 -12 4 -14 66 -14 367 0 357 2
386 32 386 4 0 8 -168 8 -373z m218 365 c18 -12 13 -743 -5 -749 -10 -4 -13
81 -15 376 -2 210 -1 381 2 381 3 0 11 -4 18 -8z m-388 -583 c0 -490 -2 -559
-15 -559 -13 0 -15 70 -15 571 0 507 2 570 15 559 13 -11 15 -87 15 -571z
m569 11 c1 -563 1 -570 -19 -570 -20 0 -20 7 -20 558 0 553 2 582 31 582 4 0
8 -256 8 -570z m-469 -15 l0 -555 -40 0 -40 0 0 555 0 555 40 0 40 0 0 -555z
m410 0 l0 -555 -40 0 -40 0 0 555 0 555 40 0 40 0 0 -555z m-560 230 c0 -8 -7
-15 -15 -15 -8 0 -15 7 -15 15 0 8 7 15 15 15 8 0 15 -7 15 -15z m668 3 c-7
-19 -38 -22 -38 -4 0 10 9 16 21 16 12 0 19 -5 17 -12z m-968 -8 c0 -5 -22
-10 -50 -10 -27 0 -50 5 -50 10 0 6 23 10 50 10 28 0 50 -4 50 -10z m190 0 c0
-6 -37 -10 -90 -10 -53 0 -90 4 -90 10 0 6 37 10 90 10 53 0 90 -4 90 -10z
m60 0 c0 -5 -9 -10 -20 -10 -11 0 -20 5 -20 10 0 6 9 10 20 10 11 0 20 -4 20
-10z m770 0 c0 -5 -9 -10 -20 -10 -11 0 -20 5 -20 10 0 6 9 10 20 10 11 0 20
-4 20 -10z m200 0 c0 -6 -37 -10 -90 -10 -53 0 -90 4 -90 10 0 6 37 10 90 10
53 0 90 -4 90 -10z m115 0 c-3 -5 -28 -10 -56 -10 -27 0 -49 5 -49 10 0 6 25
10 56 10 34 0 53 -4 49 -10z m-1340 -39 c0 -9 -15 -14 -47 -15 -41 -2 -48 1
-48 17 0 15 7 18 48 15 31 -2 47 -7 47 -17z m193 3 c-2 -13 -18 -16 -86 -16
-46 0 -86 2 -89 5 -17 17 17 27 93 27 73 0 85 -2 82 -16z m60 -1 c-2 -10 -10
-18 -18 -18 -8 0 -16 8 -18 18 -2 12 3 17 18 17 15 0 20 -5 18 -17z m52 3 c0
-8 -7 -16 -15 -20 -10 -4 -15 1 -15 14 0 11 7 20 15 20 8 0 15 -6 15 -14z
m670 -16 c0 -25 4 -30 25 -30 l25 0 0 -174 0 -174 -30 -4 c-28 -4 -30 -3 -30
29 0 23 -5 33 -15 33 -13 0 -15 26 -15 175 0 168 1 175 20 175 16 0 20 -7 20
-30z m50 10 c0 -11 -6 -20 -14 -20 -18 0 -29 16 -21 30 11 18 35 11 35 -10z
m198 4 c-2 -13 -18 -16 -88 -16 -70 0 -86 3 -88 16 -3 14 10 16 88 16 78 0 91
-2 88 -16z m117 -3 c0 -9 -15 -14 -47 -15 -41 -2 -48 1 -48 17 0 15 7 18 48
15 31 -2 47 -7 47 -17z m-1049 -98 c21 -8 21 -353 0 -353 -9 0 -16 12 -18 28
-2 21 -9 28 -30 30 l-28 3 0 174 0 174 28 3 c23 3 27 -1 30 -25 2 -16 10 -31
18 -34z m11 30 c-3 -10 -5 -4 -5 12 0 17 2 24 5 18 2 -7 2 -21 0 -30z m-297
-148 l0 -175 -50 0 -50 0 0 175 0 175 50 0 50 0 0 -175z m190 0 l0 -175 -90 0
-89 0 0 168 c1 92 3 170 6 175 2 4 42 7 89 7 l84 0 0 -175z m1030 0 l0 -175
-90 0 -90 0 0 175 0 175 90 0 90 0 0 -175z m118 -2 l2 -173 -52 0 -53 0 2 172
c2 95 3 174 3 176 0 2 21 2 48 0 l47 -3 3 -172z m-388 -163 c0 -16 -4 -30 -10
-30 -5 0 -10 14 -10 30 0 17 5 30 10 30 6 0 10 -13 10 -30z m-432 -173 c2
-182 2 -187 -18 -187 -19 0 -20 6 -20 191 0 176 1 190 18 187 15 -3 17 -21 20
-191z m180 1 l2 -188 -85 0 -85 0 0 183 c0 101 3 187 7 191 4 4 41 5 83 4 l75
-3 3 -187z m52 2 c0 -162 -2 -190 -15 -190 -13 0 -15 28 -15 190 0 162 2 190
15 190 13 0 15 -28 15 -190z m-750 115 c0 -11 -12 -15 -50 -15 -38 0 -50 4
-50 15 0 11 12 15 50 15 38 0 50 -4 50 -15z m190 0 c0 -12 -17 -15 -90 -15
-83 0 -101 5 -83 23 3 4 44 7 90 7 67 0 83 -3 83 -15z m60 0 c0 -8 -9 -15 -20
-15 -11 0 -20 7 -20 15 0 8 9 15 20 15 11 0 20 -7 20 -15z m720 0 c0 -8 -9
-15 -20 -15 -20 0 -26 11 -13 23 12 13 33 7 33 -8z m50 0 c0 -8 -9 -15 -20
-15 -11 0 -20 7 -20 15 0 8 9 15 20 15 11 0 20 -7 20 -15z m200 0 c0 -12 -17
-15 -90 -15 -73 0 -90 3 -90 15 0 12 17 15 90 15 73 0 90 -3 90 -15z m120 0
c0 -11 -12 -15 -50 -15 -38 0 -50 4 -50 15 0 11 12 15 50 15 38 0 50 -4 50
-15z m-1362 -42 c-16 -2 -40 -2 -55 0 -16 2 -3 4 27 4 30 0 43 -2 28 -4z m170
0 c-27 -2 -69 -2 -95 0 -27 2 -5 3 47 3 52 0 74 -1 48 -3z m95 0 c-7 -2 -19
-2 -25 0 -7 3 -2 5 12 5 14 0 19 -2 13 -5z m57 -8 c0 -8 -7 -15 -15 -15 -8 0
-15 7 -15 15 0 8 7 15 15 15 8 0 15 -7 15 -15z m668 3 c-7 -19 -38 -22 -38 -4
0 10 9 16 21 16 12 0 19 -5 17 -12z m45 5 c-7 -2 -19 -2 -25 0 -7 3 -2 5 12 5
14 0 19 -2 13 -5z m165 0 c-27 -2 -69 -2 -95 0 -27 2 -5 3 47 3 52 0 74 -1 48
-3z m140 0 c-15 -2 -42 -2 -60 0 -18 2 -6 4 27 4 33 0 48 -2 33 -4z m-1950
-339 c-5 -28 -28 -29 -28 -1 0 13 3 27 7 30 10 11 25 -9 21 -29z m2262 11 l0
-25 -122 0 c-68 0 -574 -3 -1125 -6 l-1003 -7 0 32 0 31 1125 0 1125 0 0 -25z
m40 -6 c0 -10 -4 -19 -10 -19 -5 0 -10 12 -10 26 0 14 4 23 10 19 6 -3 10 -15
10 -26z m208 -66 c3 -10 -276 -13 -1372 -13 -757 0 -1376 4 -1376 8 0 5 3 12
7 15 3 4 621 6 1371 5 1082 -2 1366 -6 1370 -15z m-2770 -770 l2 -753 -405 0
-405 0 0 749 c0 411 4 751 7 755 4 3 185 5 402 4 l396 -3 3 -752z m3592 512
c3 -132 4 -472 2 -755 l-2 -515 -405 3 -405 2 0 755 0 755 403 -2 402 -3 5
-240z m-820 -515 l0 -750 -225 0 -225 0 0 35 c0 31 -3 35 -25 35 -22 0 -25 -4
-25 -35 l0 -35 -880 0 -880 0 0 35 c0 31 -3 35 -25 35 -22 0 -25 -4 -25 -35
l0 -35 -225 0 -225 0 0 750 0 750 1380 0 1380 0 0 -750z m-3632 412 c3 -27 0
-32 -17 -32 -16 0 -21 6 -21 28 0 53 33 56 38 4z m4540 -1 c3 -27 0 -32 -14
-29 -12 2 -18 12 -17 31 1 39 2 39 16 35 6 -3 13 -19 15 -37z m-4600 -314 c8
-6 12 -42 12 -122 l0 -115 -47 8 c-61 9 -172 9 -240 0 l-53 -7 0 108 c0 112 4
123 45 134 30 8 268 3 283 -6z m4921 2 l31 -11 0 -114 0 -114 -47 8 c-62 9
-185 9 -246 0 l-48 -8 3 117 c3 115 3 117 28 124 41 11 244 10 279 -2z m-4864
-265 c0 -22 -5 -30 -22 -32 -13 -2 -23 1 -23 7 0 6 5 11 10 11 6 0 10 12 10
26 0 16 5 24 13 22 6 -3 12 -18 12 -34z m4945 1 c0 -32 -2 -35 -30 -35 -32 0
-40 14 -15 24 8 3 15 15 15 26 0 11 7 20 15 20 10 0 15 -11 15 -35z m-5022 14
c9 -2 12 -67 12 -288 l0 -286 -145 0 -145 0 0 287 0 287 23 4 c20 5 225 1 255
-4z m4937 0 c6 -2 9 -103 7 -288 l-3 -286 -145 0 -145 0 2 287 2 287 26 4 c24
4 234 1 256 -4z m-5235 -50 c0 -10 -7 -19 -15 -19 -9 0 -15 9 -15 25 0 18 4
23 15 19 8 -4 15 -15 15 -25z m4940 -5 c0 -8 -7 -14 -15 -14 -10 0 -15 10 -15
26 0 22 2 25 15 14 8 -7 15 -19 15 -26z m-4563 -58 c-4 -9 -11 -16 -17 -16
-11 0 -14 33 -3 44 11 10 26 -11 20 -28z m4533 3 c0 -11 -5 -19 -12 -17 -17 6
-19 38 -2 38 8 0 14 -9 14 -21z m-4940 -69 c0 -22 -4 -40 -10 -40 -11 0 -14
63 -3 73 11 12 13 8 13 -33z m408 -3 c3 -34 1 -37 -22 -37 -26 0 -36 23 -16
35 6 3 10 15 10 26 0 36 25 14 28 -24z m4532 24 c0 -11 5 -23 10 -26 19 -12
10 -35 -12 -35 -20 0 -23 5 -21 37 2 46 1 43 13 43 6 0 10 -9 10 -19z m400
-27 c0 -19 -4 -34 -10 -34 -5 0 -10 18 -10 41 0 24 4 38 10 34 6 -3 10 -22 10
-41z m-4930 -75 c0 -15 -5 -20 -22 -17 -34 5 -37 38 -4 38 20 0 26 -5 26 -21z
m4550 1 c0 -14 -7 -20 -23 -20 -16 0 -23 6 -24 20 -1 15 4 20 23 20 17 0 24
-5 24 -20z m-4552 -72 c-2 -25 -8 -34 -25 -36 -20 -3 -23 1 -23 32 0 32 3 36
26 36 23 0 25 -3 22 -32z m4552 -4 c0 -31 -3 -35 -22 -32 -16 2 -21 10 -22 36
-1 27 3 32 22 32 19 0 22 -5 22 -36z m-4550 -138 c0 -8 -4 -18 -10 -21 -5 -3
-10 3 -10 14 0 12 5 21 10 21 6 0 10 -6 10 -14z m4520 -7 c0 -11 -4 -17 -10
-14 -5 3 -10 13 -10 21 0 8 5 14 10 14 6 0 10 -9 10 -21z m-3165 -78 c3 -5 1
-12 -5 -16 -5 -3 -10 1 -10 9 0 18 6 21 15 7z m1802 -13 c-3 -8 -6 -5 -6 6 -1
11 2 17 5 13 3 -3 4 -12 1 -19z m-3219 -37 c21 -11 22 -18 22 -171 0 -88 -1
-160 -3 -160 -1 0 -18 5 -37 10 -43 13 -233 13 -277 1 l-33 -10 0 159 c0 172
-1 168 60 181 50 11 242 4 268 -10z m4902 8 l50 -11 0 -163 0 -164 -32 10
c-42 12 -232 12 -280 0 l-38 -9 0 158 c0 114 3 161 12 166 37 23 206 31 288
13z m-1216 -29 c-15 -15 -2733 -15 -2748 0 -7 7 419 10 1374 10 958 0 1381 -3
1374 -10z m-3431 -37 c-7 -2 -19 -2 -25 0 -7 3 -2 5 12 5 14 0 19 -2 13 -5z
m610 0 c-7 -2 -19 -2 -25 0 -7 3 -2 5 12 5 14 0 19 -2 13 -5z m277 -3 c0 -5
-18 -10 -40 -10 -22 0 -40 5 -40 10 0 6 18 10 40 10 22 0 40 -4 40 -10z m90 0
c0 -5 -16 -10 -35 -10 -19 0 -35 5 -35 10 0 6 16 10 35 10 19 0 35 -4 35 -10z
m90 -5 c0 -10 -11 -15 -35 -15 -24 0 -35 5 -35 15 0 10 11 15 35 15 24 0 35
-5 35 -15z m50 5 c0 -5 -7 -10 -15 -10 -8 0 -15 5 -15 10 0 6 7 10 15 10 8 0
15 -4 15 -10z m53 3 c-7 -2 -19 -2 -25 0 -7 3 -2 5 12 5 14 0 19 -2 13 -5z
m127 -3 c0 -5 -22 -10 -50 -10 -27 0 -50 5 -50 10 0 6 23 10 50 10 28 0 50 -4
50 -10z m70 0 c0 -5 -11 -10 -25 -10 -14 0 -25 5 -25 10 0 6 11 10 25 10 14 0
25 -4 25 -10z m40 0 c0 -5 -4 -10 -10 -10 -5 0 -10 5 -10 10 0 6 5 10 10 10 6
0 10 -4 10 -10z m50 -15 c0 -16 -6 -25 -15 -25 -9 0 -15 9 -15 25 0 16 6 25
15 25 9 0 15 -9 15 -25z m200 15 c0 -6 -37 -10 -90 -10 -53 0 -90 4 -90 10 0
6 37 10 90 10 53 0 90 -4 90 -10z m70 -176 l0 -185 23 3 c22 3 22 5 25 186 2
174 3 182 22 182 19 0 20 -8 20 -275 0 -265 -1 -275 -19 -275 -16 0 -20 8 -23
38 -2 30 -7 38 -25 40 -21 3 -23 -1 -23 -37 0 -34 -3 -41 -20 -41 -19 0 -19 9
-22 275 l-3 275 23 0 22 0 0 -186z m240 176 c0 -6 -28 -10 -65 -10 -37 0 -65
4 -65 10 0 6 28 10 65 10 37 0 65 -4 65 -10z m150 0 c0 -6 -28 -10 -65 -10
-37 0 -65 4 -65 10 0 6 28 10 65 10 37 0 65 -4 65 -10z m160 0 c0 -6 -30 -10
-70 -10 -40 0 -70 4 -70 10 0 6 30 10 70 10 40 0 70 -4 70 -10z m70 -62 c-1
-40 -2 -124 -1 -186 1 -109 2 -113 22 -110 21 3 21 7 21 186 l-1 182 25 0 24
0 0 -275 0 -275 -26 0 c-23 0 -25 3 -22 38 3 32 0 37 -19 40 -19 3 -22 -2 -25
-35 -2 -31 -7 -39 -25 -41 l-23 -3 0 275 0 276 26 0 c26 0 26 -1 24 -72z m290
62 c0 -6 -37 -10 -90 -10 -53 0 -90 4 -90 10 0 6 37 10 90 10 53 0 90 -4 90
-10z m50 -15 c0 -16 -6 -25 -15 -25 -9 0 -15 9 -15 25 0 16 6 25 15 25 9 0 15
-9 15 -25z m40 21 c0 -3 -4 -8 -10 -11 -5 -3 -10 -1 -10 4 0 6 5 11 10 11 6 0
10 -2 10 -4z m70 -6 c0 -5 -13 -10 -30 -10 -16 0 -30 5 -30 10 0 6 14 10 30
10 17 0 30 -4 30 -10z m125 0 c-3 -5 -31 -10 -61 -10 -30 0 -54 5 -54 10 0 6
27 10 61 10 37 0 58 -4 54 -10z m52 4 c-3 -3 -12 -4 -19 -1 -8 3 -5 6 6 6 11
1 17 -2 13 -5z m58 -4 c-3 -5 -13 -10 -21 -10 -8 0 -14 5 -14 10 0 6 9 10 21
10 11 0 17 -4 14 -10z m85 -5 c0 -10 -11 -15 -35 -15 -24 0 -35 5 -35 15 0 10
11 15 35 15 24 0 35 -5 35 -15z m80 5 c0 -5 -13 -10 -30 -10 -16 0 -30 5 -30
10 0 6 14 10 30 10 17 0 30 -4 30 -10z m100 0 c0 -5 -18 -10 -40 -10 -22 0
-40 5 -40 10 0 6 18 10 40 10 22 0 40 -4 40 -10z m233 3 c-7 -2 -19 -2 -25 0
-7 3 -2 5 12 5 14 0 19 -2 13 -5z m614 1 c-3 -3 -12 -4 -19 -1 -8 3 -5 6 6 6
11 1 17 -2 13 -5z m-2387 -139 c0 -77 -4 -135 -9 -135 -6 0 -10 58 -10 135 0
77 4 135 10 135 5 0 9 -58 9 -135z m620 1 c0 -79 -4 -137 -10 -141 -6 -4 -10
43 -10 134 0 87 4 141 10 141 6 0 10 -51 10 -134z m-1483 90 c-2 -6 -14 -13
-26 -14 -25 -4 -47 11 -38 25 8 14 69 3 64 -11z m328 3 c0 -17 -43 -25 -57
-11 -6 6 -7 15 -4 20 9 15 61 7 61 -9z m1063 -43 l3 -56 -226 0 -225 0 0 55 0
54 73 3 c39 2 140 2 222 1 l150 -1 3 -56z m662 43 c0 -14 -7 -19 -29 -19 -53
0 -55 34 -2 36 24 1 31 -3 31 -17z m327 -3 c-2 -6 -14 -13 -26 -14 -25 -4 -47
11 -38 25 8 14 69 3 64 -11z m-1271 -138 c-3 -13 -6 -54 -6 -91 l0 -68 -77 3
-78 3 -3 88 -3 87 87 0 c85 0 86 0 80 -22z m279 -68 l0 -85 -132 -3 -133 -3 0
84 c0 46 3 87 7 91 4 3 63 5 132 4 l126 -3 0 -85z m-2572 -26 l27 -6 0 -126
c0 -70 -3 -245 -7 -389 l-6 -261 -109 -7 -108 -7 0 -73 c0 -71 -1 -73 -27 -83
l-28 -9 -2 478 -3 478 38 6 c20 4 42 8 47 10 14 5 144 -3 178 -11z m4930 1
l27 -7 -2 -474 c-3 -414 -5 -474 -18 -474 -35 0 -42 16 -38 86 l3 69 -55 7
c-30 4 -80 10 -111 14 l-56 6 -6 256 c-9 336 -9 524 1 519 4 -3 27 -1 52 3 50
8 161 5 203 -5z m-4873 -15 c0 -5 -2 -10 -4 -10 -3 0 -8 5 -11 10 -3 6 -1 10
4 10 6 0 11 -4 11 -10z m4600 0 c0 -5 -4 -10 -10 -10 -5 0 -10 5 -10 10 0 6 5
10 10 10 6 0 10 -4 10 -10z m-2613 -42 c-3 -8 -6 -5 -6 6 -1 11 2 17 5 13 3
-3 4 -12 1 -19z m623 7 c0 -8 -4 -15 -10 -15 -5 0 -10 7 -10 15 0 8 5 15 10
15 6 0 10 -7 10 -15z m-510 -100 c0 -33 -4 -45 -15 -45 -11 0 -15 12 -15 45 0
33 4 45 15 45 11 0 15 -12 15 -45z m418 -42 l3 -83 -180 0 -180 0 -3 33 c-2
22 -10 35 -25 42 -19 8 -23 18 -23 53 l0 42 203 -2 202 -3 3 -82z m-531 -35
c-3 -8 -6 -5 -6 6 -1 11 2 17 5 13 3 -3 4 -12 1 -19z m623 1 c0 -5 -4 -9 -10
-9 -5 0 -10 7 -10 16 0 8 5 12 10 9 6 -3 10 -10 10 -16z m-525 -19 c0 -16 -3
-30 -7 -30 -10 0 -10 44 -1 53 3 4 7 7 7 7 1 0 1 -13 1 -30z m60 9 c4 -12 3
-25 -3 -31 -6 -6 -11 1 -14 21 -5 35 7 42 17 10z m-97 -51 c-3 -9 -25 -13 -63
-13 -38 0 -60 4 -62 13 -4 9 13 12 62 12 49 0 66 -3 63 -12z m612 -3 c-16 -20
-121 -17 -128 3 -3 9 15 12 68 12 64 0 71 -2 60 -15z m-660 -35 c0 -5 -9 -10
-20 -10 -11 0 -20 5 -20 10 0 6 9 10 20 10 11 0 20 -4 20 -10z m100 0 c0 -5
-9 -10 -20 -10 -11 0 -20 5 -20 10 0 6 9 10 20 10 11 0 20 -4 20 -10z m420 0
c0 -5 -7 -10 -15 -10 -8 0 -15 5 -15 10 0 6 7 10 15 10 8 0 15 -4 15 -10z
m100 0 c0 -5 -9 -10 -20 -10 -11 0 -20 5 -20 10 0 6 9 10 20 10 11 0 20 -4 20
-10z m-2970 -90 c4 -3 11 -20 15 -37 6 -29 4 -33 -14 -33 -19 0 -21 6 -20 58
1 31 4 48 6 37 3 -11 9 -22 13 -25z m4939 -5 c6 -3 11 -19 11 -36 0 -22 -5
-29 -20 -29 -18 0 -20 6 -19 58 0 42 2 51 9 36 5 -12 13 -25 19 -29z m-4549
-5 c0 -23 -4 -30 -20 -30 -11 0 -23 0 -27 0 -12 0 -9 17 7 40 21 29 40 25 40
-10z m4938 -3 c3 -24 0 -27 -27 -27 -35 0 -42 24 -13 46 24 18 36 12 40 -19z
m-5370 -54 c-2 -13 5 -19 25 -21 24 -3 27 -8 27 -39 0 -28 -3 -34 -16 -29 -9
3 -27 6 -40 6 -22 0 -24 4 -24 50 0 38 4 50 15 50 10 0 15 -7 13 -17z m5392
-38 l0 -45 -40 0 -40 0 0 45 0 45 40 0 40 0 0 -45z m-4990 -18 c0 -32 -4 -44
-15 -44 -11 0 -15 12 -15 44 0 32 4 43 15 43 11 0 15 -11 15 -43z m4600 -2 c0
-28 -4 -35 -20 -35 -16 0 -20 7 -20 35 0 28 4 35 20 35 16 0 20 -7 20 -35z
m-4950 -121 l0 -75 -37 3 -38 3 -3 59 c-4 77 0 86 43 86 l35 0 0 -76z m5340 1
l0 -75 -40 0 -40 0 0 75 0 75 40 0 40 0 0 -75z m-4990 0 c0 -33 -4 -45 -15
-45 -11 0 -15 12 -15 45 0 33 4 45 15 45 11 0 15 -12 15 -45z m4595 0 c0 -30
-4 -41 -17 -43 -15 -3 -18 4 -18 43 0 39 3 46 18 43 13 -2 17 -13 17 -43z
m-4395 -70 l0 -55 -54 0 -55 0 6 34 c4 26 0 38 -18 55 l-23 21 72 0 72 0 0
-55z m39 1 c1 -24 -3 -47 -9 -51 -6 -4 -10 14 -10 50 0 66 15 67 19 1z m4098
-28 c-2 -18 -4 -6 -4 27 0 33 2 48 4 33 2 -15 2 -42 0 -60z m144 58 c-17 -18
-22 -32 -17 -50 6 -26 5 -26 -49 -26 l-55 0 0 50 0 50 72 0 71 0 -22 -24z
m-4201 -46 c0 -38 -4 -50 -15 -50 -11 0 -15 12 -15 50 0 38 4 50 15 50 11 0
15 -12 15 -50z m30 0 c0 -27 -4 -50 -10 -50 -5 0 -10 23 -10 50 0 28 5 50 10
50 6 0 10 -22 10 -50z m27 -27 c-2 -16 -4 -3 -4 27 0 30 2 43 4 28 2 -16 2
-40 0 -55z m3903 27 c0 -27 -4 -50 -10 -50 -5 0 -10 23 -10 50 0 28 5 50 10
50 6 0 10 -22 10 -50z m30 0 c0 -27 -4 -50 -10 -50 -5 0 -10 23 -10 50 0 28 5
50 10 50 6 0 10 -22 10 -50z m40 -1 c0 -65 -21 -62 -24 4 -1 33 2 47 11 47 9
0 13 -16 13 -51z m-4250 10 c0 -25 -33 -22 -38 4 -2 12 3 17 17 17 15 0 21 -6
21 -21z m4478 4 c-5 -26 -38 -29 -38 -4 0 15 6 21 21 21 14 0 19 -5 17 -17z
m-4551 -5 c0 -7 4 -21 8 -30 5 -13 2 -18 -9 -18 -11 0 -16 9 -16 30 0 28 16
45 17 18z m52 -28 c11 0 27 10 35 22 9 12 16 17 16 10 0 -14 -36 -52 -49 -52
-16 0 -41 30 -40 48 0 12 3 11 9 -5 5 -13 18 -23 29 -23z m4561 15 c0 -16 -6
-25 -16 -25 -11 0 -14 5 -10 16 3 9 6 20 6 25 0 5 5 9 10 9 6 0 10 -11 10 -25z
m-60 -7 c11 7 20 8 20 2 0 -18 -39 -31 -60 -20 -11 6 -20 15 -20 20 0 6 9 5
20 -2 16 -10 24 -10 40 0z m-4305 -48 c3 -5 28 -10 56 -10 42 0 49 -3 49 -20
0 -17 -7 -20 -43 -20 -24 0 -48 -5 -53 -10 -12 -12 -355 -7 -452 5 -42 6 -52
10 -50 24 2 11 18 17 55 21 28 3 55 9 59 13 11 11 372 9 379 -3z m4480 0 c3
-5 28 -10 56 -10 41 0 49 -3 49 -19 0 -27 -60 -33 -300 -33 -240 0 -300 6
-300 33 0 16 8 19 49 19 28 0 53 5 56 10 4 6 80 10 195 10 115 0 191 -4 195
-10z m-4955 -130 c0 -33 -4 -60 -10 -60 -6 0 -10 27 -10 60 0 33 4 60 10 60 6
0 10 -27 10 -60z m30 -6 c0 -41 -4 -63 -10 -59 -5 3 -10 33 -10 66 0 33 4 59
10 59 6 0 10 -29 10 -66z m48 4 c-2 -38 -8 -63 -15 -66 -10 -3 -13 14 -13 62
0 53 3 66 15 66 13 0 15 -11 13 -62z m440 0 c-2 -38 -8 -63 -15 -66 -10 -3
-13 14 -13 62 0 53 3 66 15 66 13 0 15 -11 13 -62z m32 -4 c0 -41 -4 -63 -10
-59 -5 3 -10 33 -10 66 0 33 4 59 10 59 6 0 10 -29 10 -66z m27 -26 c-2 -18
-4 -4 -4 32 0 36 2 50 4 33 2 -18 2 -48 0 -65z m3903 32 c0 -33 -4 -60 -10
-60 -6 0 -10 27 -10 60 0 33 4 60 10 60 6 0 10 -27 10 -60z m30 0 c0 -33 -4
-60 -10 -60 -6 0 -10 27 -10 60 0 33 4 60 10 60 6 0 10 -27 10 -60z m40 -5 c0
-37 -4 -65 -10 -65 -6 0 -10 28 -10 65 0 37 4 65 10 65 6 0 10 -28 10 -65z
m440 0 c0 -37 -4 -65 -10 -65 -6 0 -10 28 -10 65 0 37 4 65 10 65 6 0 10 -28
10 -65z m40 5 c0 -33 -4 -60 -10 -60 -6 0 -10 27 -10 60 0 33 4 60 10 60 6 0
10 -27 10 -60z m30 0 c0 -33 -4 -60 -10 -60 -6 0 -10 27 -10 60 0 33 4 60 10
60 6 0 10 -27 10 -60z m-4950 -21 c0 -33 -4 -59 -10 -59 -6 0 -10 29 -10 66 0
41 4 63 10 59 6 -3 10 -33 10 -66z m334 3 l1 -62 -162 0 -163 0 0 65 0 65 161
-2 161 -3 2 -63z m36 -3 c0 -33 -4 -59 -10 -59 -6 0 -10 29 -10 66 0 41 4 63
10 59 6 -3 10 -33 10 -66z m4097 -26 c-2 -21 -4 -6 -4 32 0 39 2 55 4 38 2
-18 2 -50 0 -70z m343 32 l0 -65 -160 0 -160 0 0 65 0 65 160 0 160 0 0 -65z
m27 -32 c-2 -21 -4 -6 -4 32 0 39 2 55 4 38 2 -18 2 -50 0 -70z m-4979 -328
c-2 -252 -6 -329 -15 -333 -10 -3 -13 68 -13 331 0 183 3 337 7 341 20 19 23
-38 21 -339z m5132 -1 c0 -184 -4 -334 -8 -334 -14 0 -29 659 -16 673 20 20
24 -35 24 -339z m-5100 -23 c0 -203 -4 -322 -10 -326 -7 -4 -10 105 -10 319 0
211 4 326 10 326 6 0 10 -113 10 -319z m30 4 c0 -203 -4 -315 -10 -315 -6 0
-10 112 -10 315 0 203 4 315 10 315 6 0 10 -112 10 -315z m48 -3 c2 -273 0
-312 -13 -312 -13 0 -15 40 -15 316 0 248 3 315 13 312 9 -4 13 -78 15 -316z
m442 4 c0 -270 -2 -315 -15 -320 -13 -5 -15 34 -15 314 0 278 2 320 15 320 13
0 15 -42 15 -314z m30 -1 c0 -203 -4 -315 -10 -315 -6 0 -10 112 -10 315 0
203 4 315 10 315 6 0 10 -112 10 -315z m27 -178 c-1 -89 -3 -13 -3 168 0 182
2 254 3 162 2 -93 2 -241 0 -330z m3903 174 c0 -203 -4 -322 -10 -326 -7 -4
-10 105 -10 319 0 211 4 326 10 326 6 0 10 -113 10 -319z m30 4 c0 -203 -4
-315 -10 -315 -6 0 -10 112 -10 315 0 203 4 315 10 315 6 0 10 -112 10 -315z
m40 -6 c0 -211 -3 -318 -10 -314 -6 4 -10 122 -10 321 0 203 4 314 10 314 6 0
10 -114 10 -321z m440 7 c0 -199 -4 -317 -10 -321 -7 -4 -10 103 -10 314 0
207 4 321 10 321 6 0 10 -111 10 -314z m40 -1 c0 -203 -4 -315 -10 -315 -6 0
-10 112 -10 315 0 203 4 315 10 315 6 0 10 -112 10 -315z m30 -17 c0 -219 -4
-328 -10 -318 -13 21 -13 650 0 650 6 0 10 -117 10 -332z m-4950 -28 c0 -220
-4 -340 -10 -340 -6 0 -10 120 -10 340 0 220 4 340 10 340 6 0 10 -120 10
-340z m333 3 l-2 -338 -161 -3 -160 -2 0 340 0 340 163 0 162 0 -2 -337z m37
2 c-1 -200 -5 -337 -10 -340 -6 -4 -10 121 -10 334 0 226 3 341 10 341 7 0 10
-113 10 -335z m4097 -177 c-1 -95 -3 -18 -3 172 0 190 2 267 3 173 2 -95 2
-251 0 -345z m343 172 l0 -340 -160 0 -160 0 0 340 0 340 160 0 160 0 0 -340z
m27 -172 c-1 -95 -3 -18 -3 172 0 190 2 267 3 173 2 -95 2 -251 0 -345z
m-5027 307 c0 -24 -5 -35 -15 -35 -15 0 -22 50 -8 63 15 15 23 5 23 -28z
m5230 0 c0 -24 -5 -35 -15 -35 -10 0 -15 11 -15 35 0 24 5 35 15 35 10 0 15
-11 15 -35z m-5693 -41 c-3 -3 -12 -4 -19 -1 -8 3 -5 6 6 6 11 1 17 -2 13 -5z
m108 -4 c-3 -5 -11 -10 -16 -10 -5 0 -26 -10 -47 -23 -42 -27 -102 -49 -102
-39 0 7 146 79 163 81 5 1 5 -3 2 -9z m93 -27 c36 -20 60 -39 54 -41 -7 -2
-24 3 -37 12 -31 20 -41 20 -25 1 17 -21 0 -18 -30 5 -14 10 -21 22 -18 26 4
4 0 13 -10 20 -33 25 0 14 66 -23z m151 21 c8 -7 -84 -2 -114 7 -19 5 -4 6 40
2 39 -3 72 -7 74 -9z m5806 6 c-3 -5 -16 -10 -28 -9 -20 1 -20 2 3 9 14 4 26
8 28 9 2 1 0 -3 -3 -9z m-6490 -35 c50 -29 56 -35 34 -35 -23 0 -109 51 -109
65 0 10 17 4 75 -30z m6615 31 c0 -9 -90 -56 -107 -56 -10 1 7 14 37 30 53 28
70 34 70 26z m73 -28 c28 -18 45 -34 38 -36 -6 -2 -17 1 -24 7 -7 5 -23 8 -35
4 -13 -3 -22 -1 -22 6 0 6 8 8 18 4 15 -6 15 -5 3 10 -7 9 -20 17 -27 17 -8 0
-14 5 -14 10 0 16 10 12 63 -22z m147 22 c16 -6 6 -7 -30 -3 -30 3 -57 7 -59
9 -8 7 64 2 89 -6z m-6738 -9 c37 -5 104 -6 148 -2 44 4 80 6 80 5 0 -1 -22
-16 -49 -33 -41 -27 -53 -30 -75 -21 -17 6 -35 6 -53 -1 -21 -8 -33 -5 -64 16
-21 14 -43 25 -48 25 -5 0 -13 5 -16 10 -7 12 -9 12 77 1z m6048 -17 c45 -30
48 -34 23 -34 -21 1 -95 59 -75 60 7 0 30 -12 52 -26z m110 12 c70 -11 101
-11 175 -1 50 7 91 11 93 10 2 -1 -16 -13 -40 -25 -33 -18 -65 -24 -140 -28
-88 -4 -99 -3 -124 17 -15 11 -33 21 -40 21 -7 0 -16 5 -19 10 -8 13 -7 13 95
-4z m610 -28 c0 -27 -53 -23 -106 8 -24 14 -44 27 -44 28 0 0 34 -3 75 -8 62
-8 75 -13 75 -28z m-6454 6 c-11 -8 -27 -14 -35 -14 -9 0 -3 8 14 19 34 21 50
17 21 -5z m51 20 c-3 -3 -12 -4 -19 -1 -8 3 -5 6 6 6 11 1 17 -2 13 -5z m221
0 c12 -4 22 -14 22 -24 0 -32 -31 -32 -79 0 l-46 30 40 0 c22 0 50 -3 63 -6z
m5429 -30 c-7 -7 -37 7 -37 17 0 6 9 5 21 -1 11 -7 19 -14 16 -16z m520 20
c-3 -3 -12 -4 -19 -1 -8 3 -5 6 6 6 11 1 17 -2 13 -5z m-42 -14 c-3 -5 -11
-10 -16 -10 -6 0 -7 5 -4 10 3 6 11 10 16 10 6 0 7 -4 4 -10z m-5795 -30 c0
-20 -5 -30 -15 -30 -10 0 -15 10 -15 30 0 20 5 30 15 30 10 0 15 -10 15 -30z
m5230 0 c0 -20 -5 -30 -15 -30 -10 0 -15 10 -15 30 0 20 5 30 15 30 10 0 15
-10 15 -30z m-5675 -24 c-44 -12 -90 -27 -102 -34 -12 -7 -25 -12 -30 -12 -4
1 8 9 27 20 42 23 27 26 -24 5 -30 -13 -36 -13 -36 -1 0 8 15 17 36 20 19 4
43 10 51 13 11 4 14 2 9 -5 -9 -15 -1 -14 44 3 19 7 51 13 70 13 26 1 16 -5
-45 -22z m6040 14 c-3 -5 -16 -10 -28 -9 -20 1 -20 2 3 9 14 4 26 8 28 9 2 1
0 -3 -3 -9z m133 3 c-10 -2 -28 -2 -40 0 -13 2 -5 4 17 4 22 1 32 -1 23 -4z
m-195 -10 c-7 -2 -21 -2 -30 0 -10 3 -4 5 12 5 17 0 24 -2 18 -5z m-6180 -13
c9 0 17 -7 17 -16 0 -16 -10 -15 -80 13 l-35 13 40 -5 c22 -2 48 -5 58 -5z
m552 -11 c14 -14 -16 -10 -50 6 l-30 15 35 -6 c19 -3 39 -10 45 -15z m-295 -3
c0 -2 -30 -14 -67 -27 -38 -12 -75 -24 -83 -27 -8 -3 -12 -2 -9 2 7 7 137 55
152 56 4 0 7 -2 7 -4z m208 -33 c40 -14 71 -28 68 -30 -5 -6 -186 57 -186 64
0 6 30 -3 118 -34z m5839 3 c59 13 113 24 118 24 6 0 -15 -15 -45 -33 -30 -19
-84 -55 -119 -80 -35 -26 -68 -44 -73 -41 -6 4 -38 28 -72 53 -33 25 -82 57
-108 71 -27 14 -48 28 -48 31 0 3 54 -7 119 -22 l119 -27 109 24z m53 24 c-14
-4 -34 -8 -45 -8 l-20 -1 20 9 c11 5 31 8 45 8 l25 0 -25 -8z m288 -1 c26 -7
51 -15 56 -20 8 -7 -32 1 -129 24 -18 4 -17 5 3 6 13 0 44 -4 70 -10z m-6705
-58 l87 -32 137 48 137 47 128 -44 128 -44 0 -63 c0 -35 -4 -63 -8 -63 -5 0
-21 14 -38 31 -36 38 -190 149 -207 149 -18 0 -133 -80 -206 -144 -36 -31 -69
-56 -74 -56 -5 0 -39 26 -75 58 -37 32 -91 75 -119 96 -32 22 -53 45 -53 56 0
18 3 18 38 6 20 -8 76 -28 125 -45z m-39 50 c4 -5 -3 -7 -14 -4 -23 6 -26 13
-6 13 8 0 17 -4 20 -9z m746 -21 c0 -20 -5 -30 -15 -30 -10 0 -15 10 -15 30 0
20 5 30 15 30 10 0 15 -10 15 -30z m5230 0 c0 -20 -5 -30 -15 -30 -10 0 -15
10 -15 30 0 20 5 30 15 30 10 0 15 -10 15 -30z m774 1 l68 -16 2 -47 c1 -27 0
-48 -1 -48 -2 0 -27 18 -55 41 -29 22 -73 52 -100 65 -77 39 -65 40 86 5z
m-184 12 c0 -5 -19 -19 -41 -31 -23 -13 -81 -60 -129 -103 -49 -43 -91 -79
-94 -79 -3 0 -6 12 -6 28 0 18 9 32 28 45 15 9 72 47 127 82 99 64 115 72 115
58z m139 -72 c85 -59 117 -85 117 -100 0 -12 -2 -21 -5 -21 -2 0 -47 35 -100
78 -53 44 -106 84 -118 91 -21 10 -32 31 -17 31 3 0 58 -36 123 -79z m136 69
c3 -5 1 -10 -4 -10 -6 0 -11 5 -11 10 0 6 2 10 4 10 3 0 8 -4 11 -10z m-673
-77 c103 -69 117 -81 117 -107 1 -21 -2 -26 -11 -19 -51 38 -229 186 -233 194
-13 21 16 5 127 -68z m-5772 28 c0 -11 -9 -23 -21 -26 -12 -4 -69 -54 -129
-111 -59 -57 -110 -104 -112 -104 -3 0 -3 13 1 29 7 32 57 80 180 173 42 32
77 58 79 58 1 0 2 -9 2 -19z m159 -96 c72 -58 100 -86 100 -102 1 -13 -2 -23
-5 -23 -3 0 -55 45 -115 100 -60 55 -113 100 -119 100 -5 0 -10 9 -10 21 0 24
-8 30 149 -96z m121 105 c0 -5 -4 -10 -10 -10 -5 0 -10 5 -10 10 0 6 5 10 10
10 6 0 10 -4 10 -10z m5405 -26 c22 -19 31 -31 20 -25 -29 14 -82 60 -70 60 6
1 28 -15 50 -35z m465 28 c0 -5 -21 -24 -47 -42 -27 -18 -81 -62 -120 -98 -40
-35 -73 -60 -73 -55 0 13 218 199 238 203 1 0 2 -4 2 -8z m37 2 c-3 -3 -12 -4
-19 -1 -8 3 -5 6 6 6 11 1 17 -2 13 -5z m73 -45 l45 -40 -48 33 c-49 33 -65
48 -50 48 4 0 28 -18 53 -41z m-6652 -64 c94 -76 112 -94 112 -118 0 -20 -4
-26 -12 -21 -32 19 -228 210 -228 222 0 19 2 17 128 -83z m6547 66 c-9 -16
-216 -183 -220 -179 -4 3 214 188 222 188 2 0 2 -4 -2 -9z m245 -167 c14 -18
14 -18 -5 -4 -11 8 -60 48 -108 89 -48 40 -90 71 -93 68 -4 -3 194 -174 224
-193 7 -4 7 -204 0 -202 -3 2 -57 58 -118 126 -61 67 -117 122 -123 122 -19
-1 -34 -16 -162 -158 l-119 -134 -36 41 c-19 22 -75 84 -123 138 l-89 98 -1
73 c-1 39 0 72 3 72 3 0 56 -43 118 -95 63 -52 120 -95 128 -95 8 0 72 47 144
105 71 58 134 105 140 105 5 0 10 5 10 10 0 12 186 -135 210 -166z m-6840 80
l25 -28 -25 20 c-67 51 -100 80 -100 87 0 11 67 -42 100 -79z m460 82 c0 -11
-19 -15 -25 -6 -3 5 1 10 9 10 9 0 16 -2 16 -4z m-91 -63 c-29 -26 -83 -75
-118 -110 -35 -35 -66 -61 -68 -60 -2 2 49 55 113 116 63 62 118 110 122 107
3 -4 -19 -28 -49 -53z m281 -109 c32 -34 24 -29 -25 17 -39 35 -90 80 -113 99
-23 18 -42 38 -42 43 0 11 118 -93 180 -159z m140 126 c0 -20 -5 -30 -15 -30
-10 0 -15 10 -15 30 0 20 5 30 15 30 10 0 15 -10 15 -30z m5230 0 c0 -20 -5
-30 -15 -30 -10 0 -15 10 -15 30 0 20 5 30 15 30 10 0 15 -10 15 -30z m200
-46 c14 -16 2 -9 -27 16 -29 24 -53 45 -53 47 0 8 55 -35 80 -63z m639 -37 c1
-11 -67 43 -94 74 -11 12 6 3 37 -22 31 -24 57 -48 57 -52z m-6464 42 c-22
-22 -76 -72 -120 -111 -61 -53 -52 -43 34 41 112 108 164 152 86 70z m230
-110 l70 -73 -90 81 c-49 45 -103 96 -120 114 -56 62 64 -43 140 -122z m3 -34
l72 -69 0 -103 c0 -57 -3 -103 -7 -102 -5 0 -57 59 -117 130 -81 96 -114 129
-131 129 -18 0 -53 -36 -147 -149 -67 -82 -126 -149 -129 -148 -3 1 -61 67
-128 145 l-121 144 0 85 0 85 87 -80 c49 -44 99 -92 112 -106 42 -45 61 -36
199 93 l127 119 55 -51 c30 -29 88 -83 128 -122z m5687 87 c-3 -3 -22 11 -43
33 l-37 38 43 -33 c24 -18 40 -35 37 -38z m-6280 -2 c21 -22 37 -40 34 -40 -3
0 -23 18 -44 40 -21 22 -37 40 -34 40 3 0 23 -18 44 -40z m109 -69 c41 -45 -2
-18 -49 31 -48 49 -48 50 -10 21 22 -17 49 -40 59 -52z m696 75 c0 -3 -4 -8
-10 -11 -5 -3 -10 -1 -10 4 0 6 5 11 10 11 6 0 10 -2 10 -4z m5120 -6 c0 -5
-2 -10 -4 -10 -3 0 -8 5 -11 10 -3 6 -1 10 4 10 6 0 11 -4 11 -10z m-5012 -28
c4 -13 -42 -27 -57 -17 -6 3 -11 12 -11 18 0 15 63 14 68 -1z m479 -6 c-6 -17
-61 -14 -65 5 -2 12 5 14 33 11 21 -3 34 -9 32 -16z m3991 4 c-4 -18 -46 -26
-60 -12 -16 16 -3 27 31 27 23 0 31 -4 29 -15z m490 2 c4 -13 -42 -27 -57 -17
-6 3 -11 12 -11 18 0 15 63 14 68 -1z m976 -7 c3 -8 1 -15 -4 -15 -6 0 -10 7
-10 15 0 8 2 15 4 15 2 0 6 -7 10 -15z m-537 -11 c-3 -3 -12 -4 -19 -1 -8 3
-5 6 6 6 11 1 17 -2 13 -5z m263 -29 c0 -15 -15 -40 -39 -65 -21 -22 -81 -95
-132 -161 l-94 -122 -3 36 c-3 33 7 48 125 186 70 82 131 150 136 150 4 1 7
-10 7 -24z m135 -114 c88 -104 118 -147 120 -170 2 -17 0 -31 -4 -31 -3 1 -40
44 -81 97 -41 53 -94 117 -117 143 -27 31 -43 57 -43 74 0 14 2 26 4 26 2 0
57 -62 121 -139z m-5865 103 c0 -8 -7 -14 -15 -14 -15 0 -21 21 -9 33 10 9 24
-2 24 -19z m530 4 c0 -17 -19 -18 -260 -18 -210 0 -260 3 -260 13 0 8 2 16 4
18 2 2 119 4 260 4 237 0 256 -1 256 -17z m40 2 c0 -11 -4 -20 -10 -20 -5 0
-10 9 -10 20 0 11 5 20 10 20 6 0 10 -9 10 -20z m3908 -3 c2 -10 -3 -17 -12
-17 -10 0 -16 9 -16 21 0 24 23 21 28 -4z m520 14 c6 -1 12 -8 12 -16 0 -13
-36 -15 -260 -15 -219 0 -260 2 -260 14 0 8 8 16 17 18 13 2 442 1 491 -1z
m52 -17 c0 -8 -7 -14 -15 -14 -15 0 -21 21 -9 33 10 9 24 -2 24 -19z m259 -99
c51 -60 104 -120 117 -133 20 -18 25 -30 22 -62 l-3 -41 -43 56 c-24 30 -47
53 -51 50 -5 -2 -17 5 -27 18 l-19 22 23 -19 c12 -11 22 -15 22 -9 0 13 -35
45 -42 38 -3 -3 -31 24 -63 60 -32 36 -55 68 -52 71 2 3 28 -25 57 -61 29 -36
55 -64 57 -61 3 3 -19 35 -48 73 -47 58 -75 121 -50 111 5 -2 50 -52 100 -113z
m-5469 59 c0 -8 -4 -12 -10 -9 -5 3 -10 10 -10 16 0 5 5 9 10 9 6 0 10 -7 10
-16z m558 -11 c-71 -2 -185 -2 -255 0 -71 1 -13 3 127 3 140 0 198 -2 128 -3z
m4480 0 c-71 -2 -185 -2 -255 0 -71 1 -13 3 127 3 140 0 198 -2 128 -3z m869
1 c-3 -3 -12 -4 -19 -1 -8 3 -5 6 6 6 11 1 17 -2 13 -5z m-6214 -93 c-15 -15
-73 -87 -128 -160 -99 -131 -100 -132 -103 -97 -3 36 27 78 212 300 l41 49 3
-32 c3 -23 -4 -38 -25 -60z m170 -62 c102 -130 118 -155 115 -182 -3 -31 -8
-25 -112 110 -59 78 -115 144 -122 147 -14 6 -20 77 -6 75 4 0 60 -68 125
-150z m5962 84 c-26 -32 -79 -97 -117 -145 -38 -49 -72 -88 -75 -88 -3 0 -1 6
4 13 138 179 226 287 231 282 3 -2 -17 -30 -43 -62z m186 -48 c6 -11 -8 0 -30
25 -23 25 -46 54 -52 65 -5 11 9 0 31 -25 23 -25 46 -54 51 -65z m-6587 -174
c13 -11 16 -27 15 -68 -1 -29 -5 -53 -8 -53 -3 1 -21 22 -39 48 l-33 47 35
-40 c70 -78 34 -21 -75 121 -61 80 -113 143 -116 141 -2 -3 26 -45 63 -93 38
-49 59 -81 47 -71 -14 12 -22 14 -25 7 -2 -7 -25 15 -51 48 -30 39 -43 62 -35
65 9 3 8 10 -6 26 -11 11 -14 21 -8 21 7 0 12 15 12 36 0 36 2 34 103 -92 57
-71 111 -135 121 -143z m786 254 c0 -8 -6 -15 -14 -15 -17 0 -28 14 -19 24 12
12 33 6 33 -9z m120 -10 c0 -22 -4 -25 -38 -25 -45 0 -52 4 -45 31 4 15 14 19
44 19 35 0 39 -3 39 -25z m181 8 c1 -34 -3 -128 -6 -131 -9 -9 -87 -14 -119
-8 l-36 7 0 74 0 75 80 0 c69 0 80 -2 81 -17z m109 -8 c0 -22 -4 -25 -39 -25
-42 0 -57 11 -47 35 3 10 20 15 46 15 36 0 40 -2 40 -25z m70 10 c0 -8 -7 -15
-15 -15 -8 0 -15 7 -15 15 0 8 7 15 15 15 8 0 15 -7 15 -15z m3990 0 c0 -8 -7
-15 -15 -15 -8 0 -15 7 -15 15 0 8 7 15 15 15 8 0 15 -7 15 -15z m130 -10 c0
-23 -4 -25 -45 -25 -45 0 -48 5 -36 48 1 1 19 2 41 2 36 0 40 -2 40 -25z m180
-49 c0 -82 -4 -86 -80 -86 -76 0 -80 4 -80 86 l0 74 80 0 80 0 0 -74z m106 47
c4 -21 0 -23 -41 -23 -42 0 -45 2 -45 26 0 23 3 25 42 22 34 -2 42 -7 44 -25z
m74 12 c0 -8 -6 -15 -14 -15 -17 0 -28 14 -19 24 12 12 33 6 33 -9z m645 -87
c-37 -46 -91 -111 -118 -145 -28 -35 -52 -61 -55 -59 -2 3 33 51 79 108 126
157 152 188 157 183 3 -2 -26 -42 -63 -87z m109 78 c152 -186 208 -258 204
-261 -2 -3 -38 37 -79 87 -41 51 -91 114 -112 140 -21 27 -35 48 -31 48 4 0
12 -6 18 -14z m-413 -173 c46 -58 77 -107 73 -114 -7 -13 13 -29 37 -29 9 0
73 69 144 155 69 85 128 155 129 155 2 0 58 -68 125 -150 l122 -151 2 -104 c2
-125 -8 -133 -66 -55 -21 28 -42 48 -46 45 -5 -2 -15 3 -22 13 -13 15 -12 16
4 3 30 -23 19 -3 -39 74 -72 95 -86 97 -148 16 -46 -60 -56 -78 -34 -65 7 4 8
3 4 -5 -4 -6 -11 -9 -16 -6 -5 3 -29 -21 -54 -54 -49 -63 -59 -86 -26 -56 11
10 20 15 20 10 0 -4 8 -1 18 6 15 13 16 12 3 -4 -8 -9 -16 -15 -19 -12 -7 7
-32 -15 -32 -27 0 -6 8 -4 17 3 9 8 2 -8 -17 -34 -19 -27 -39 -51 -45 -54 -5
-3 -4 0 3 8 18 20 15 33 -5 18 -15 -11 -16 -11 -5 1 19 22 14 35 -7 16 -18
-16 -20 -16 -35 6 -16 23 -16 23 16 26 18 2 34 -1 36 -8 3 -8 8 -8 18 1 26 21
14 29 -45 29 l-60 0 -96 125 -96 125 -2 115 c-1 63 -1 115 0 115 1 0 48 -57
104 -126 55 -69 103 -123 106 -120 3 2 -45 66 -106 140 -61 75 -111 139 -111
143 1 10 52 -49 151 -174z m-5287 15 c-1 -117 -2 -123 -23 -126 -20 -3 -21 0
-21 116 0 65 3 122 7 125 3 4 13 7 22 7 14 0 16 -17 15 -122z m457 75 c0 -27
2 -83 4 -125 3 -77 3 -78 -21 -78 l-24 0 0 125 c0 118 1 125 20 125 17 0 20
-7 21 -47z m4019 -78 c0 -118 -1 -125 -20 -125 -19 0 -20 7 -20 125 0 118 1
125 20 125 19 0 20 -7 20 -125z m460 -1 c0 -124 0 -125 -22 -122 -21 3 -23 8
-22 68 3 187 3 180 24 180 19 0 20 -7 20 -126z m-5423 110 c-3 -3 -12 -4 -19
-1 -8 3 -5 6 6 6 11 1 17 -2 13 -5z m593 -34 l0 -40 -45 0 -45 0 0 40 0 40 45
0 45 0 0 -40z m290 0 l0 -40 -45 0 -45 0 0 40 0 40 45 0 45 0 0 -40z m4190 0
l0 -40 -45 0 -45 0 0 40 0 40 45 0 45 0 0 -40z m290 0 l0 -40 -45 0 -45 0 0
40 0 40 45 0 45 0 0 -40z m-5449 -43 c-52 -67 -66 -94 -31 -62 11 10 20 14 20
8 0 -5 -9 -18 -19 -27 -14 -13 -20 -14 -23 -5 -2 7 -32 -24 -67 -69 -34 -45
-64 -82 -67 -82 -2 0 48 70 112 155 65 85 119 153 122 150 2 -2 -19 -33 -47
-68z m218 -74 c55 -73 101 -135 101 -139 0 -4 -16 14 -36 41 -23 29 -39 43
-43 36 -5 -7 -19 4 -39 28 -36 45 -42 63 -12 36 11 -10 20 -14 20 -8 0 5 -9
18 -20 28 -14 13 -20 14 -20 5 0 -9 -6 -8 -20 5 -11 10 -20 23 -20 28 0 6 9 2
20 -8 11 -10 20 -14 20 -8 0 5 -9 18 -20 28 -12 11 -20 13 -20 6 0 -17 -17 -4
-31 22 -12 22 -12 22 10 3 11 -11 21 -14 21 -9 0 6 -7 16 -15 23 -8 7 -15 17
-15 23 0 15 1 13 119 -140z m296 107 c8 -36 0 -50 -26 -50 -16 0 -19 7 -19 40
0 33 3 40 19 40 13 0 21 -9 26 -30z m575 15 c0 -8 -9 -15 -20 -15 -11 0 -20 7
-20 15 0 8 9 15 20 15 11 0 20 -7 20 -15z m4480 -25 c0 -33 -3 -40 -20 -40
-17 0 -20 7 -20 40 0 33 3 40 20 40 17 0 20 -7 20 -40z m-580 10 c0 -13 -7
-20 -20 -20 -19 0 -27 20 -13 33 13 14 33 6 33 -13z m-4789 -160 l129 -165 0
-117 c0 -65 -2 -118 -4 -118 -2 0 -42 52 -90 115 -48 63 -91 113 -96 110 -4
-3 -14 3 -21 13 -13 15 -12 16 4 3 30 -24 18 6 -14 33 -24 20 -34 24 -49 16
-11 -6 -71 -79 -135 -163 -64 -83 -120 -152 -126 -152 -5 0 -64 70 -129 155
l-119 155 -1 120 c0 65 4 115 8 110 5 -6 48 -61 97 -123 48 -62 90 -111 92
-108 3 3 -21 37 -52 76 -31 39 -55 73 -52 76 2 2 29 -28 59 -68 65 -87 75
-104 60 -94 -24 14 -11 -14 12 -29 19 -13 29 -14 45 -5 22 11 28 30 11 30 -5
0 18 36 52 80 34 44 63 78 66 76 2 -3 -22 -37 -53 -76 -31 -39 -55 -73 -52
-76 2 -3 55 59 116 137 62 77 110 143 108 146 -3 2 -20 -14 -38 -36 -18 -23
-34 -39 -37 -37 -7 7 61 87 71 83 4 -1 67 -77 138 -167z m929 150 c0 -11 -7
-20 -15 -20 -8 0 -15 9 -15 20 0 11 7 20 15 20 8 0 15 -9 15 -20z m3810 0 c0
-11 -7 -20 -15 -20 -8 0 -15 9 -15 20 0 11 7 20 15 20 8 0 15 -9 15 -20z
m-3850 -25 c0 -8 -9 -15 -20 -15 -11 0 -20 7 -20 15 0 8 9 15 20 15 11 0 20
-7 20 -15z m3900 -15 c0 -5 -9 -10 -20 -10 -11 0 -20 5 -20 10 0 6 9 10 20 10
11 0 20 -4 20 -10z m-4162 -42 c2 -26 -1 -38 -10 -39 -7 0 -21 -2 -32 -4 -34
-7 -46 6 -46 47 l0 39 43 -3 c41 -3 42 -4 45 -40z m302 16 c0 -8 -7 -14 -15
-14 -15 0 -21 21 -9 33 10 9 24 -2 24 -19z m3810 0 c0 -8 -7 -14 -15 -14 -15
0 -21 21 -9 33 10 9 24 -2 24 -19z m360 -13 c0 -40 -12 -52 -46 -46 -11 2 -22
4 -26 4 -5 1 -8 19 -8 41 l0 40 40 0 c40 0 40 0 40 -39z m641 -53 c20 -36 0
-16 -40 40 -40 54 -40 55 -6 17 20 -22 40 -48 46 -57z m-5491 27 c0 -41 -2
-45 -25 -45 -23 0 -25 4 -25 45 0 41 2 45 25 45 23 0 25 -4 25 -45z m280 15
c0 -16 -4 -30 -10 -30 -5 0 -10 7 -10 15 0 12 -13 15 -60 15 -47 0 -60 3 -60
15 0 12 14 15 70 15 l70 0 0 -30z m240 15 c0 -11 -13 -15 -55 -15 -41 0 -56
-4 -64 -17 -9 -15 -10 -12 -11 15 l0 32 65 0 c51 0 65 -3 65 -15z m4229 -17
c-1 -18 -3 -25 -6 -15 -4 14 -16 17 -64 17 -46 0 -59 3 -59 15 0 12 14 15 65
15 l65 0 -1 -32z m251 17 c0 -12 -13 -15 -59 -15 -48 0 -60 -3 -64 -17 -3 -10
-5 -3 -6 15 l-1 32 65 0 c51 0 65 -3 65 -15z m188 -27 c-2 -36 -7 -44 -25 -46
-21 -3 -23 1 -23 42 0 43 2 46 26 46 23 0 25 -3 22 -42z m-4548 22 c0 -5 -9
-10 -20 -10 -11 0 -20 5 -20 10 0 6 9 10 20 10 11 0 20 -4 20 -10z m-572 -22
c-2 -15 -10 -23 -23 -23 -13 0 -21 8 -23 23 -3 18 1 22 23 22 22 0 26 -4 23
-22z m4472 2 c0 -11 -6 -20 -14 -20 -18 0 -29 16 -21 30 11 18 35 11 35 -10z
m578 -2 c-5 -34 -38 -37 -38 -4 0 20 5 26 21 26 15 0 20 -5 17 -22z m-4870
-66 l3 -63 -53 3 -53 3 -3 49 c-5 71 0 78 55 74 l48 -3 3 -63z m272 3 l0 -65
-50 0 -50 0 0 65 0 65 50 0 50 0 0 -65z m160 45 c0 -11 -7 -20 -15 -20 -8 0
-15 9 -15 20 0 11 7 20 15 20 8 0 15 -9 15 -20z m3810 0 c0 -11 -4 -20 -10
-20 -5 0 -10 9 -10 20 0 11 5 20 10 20 6 0 10 -9 10 -20z m232 10 c2 -5 1 -35
0 -65 l-4 -55 -49 0 -49 0 0 58 c0 32 3 62 7 65 10 11 91 8 95 -3z m276 -52
l-3 -63 -50 0 -50 0 -3 49 c-5 70 0 76 58 76 l51 0 -3 -62z m-4365 45 c-7 -2
-19 -2 -25 0 -7 3 -2 5 12 5 14 0 19 -2 13 -5z m-1382 -30 c13 -16 12 -17 -3
-4 -17 13 -22 21 -14 21 2 0 10 -8 17 -17z m817 -41 c3 -40 2 -43 -20 -40 -17
2 -24 11 -26 31 -5 39 5 59 25 55 13 -2 19 -15 21 -46z m242 -8 c0 -47 -3 -55
-16 -50 -9 3 -20 6 -25 6 -5 0 -9 23 -9 50 0 47 2 50 25 50 24 0 25 -3 25 -56z
m30 -4 c0 -33 -3 -60 -7 -60 -5 0 -6 27 -5 60 5 77 12 77 12 0z m60 11 c0 -35
-4 -51 -16 -55 -26 -10 -34 3 -34 55 0 46 2 49 25 49 23 0 25 -3 25 -49z m235
39 c-3 -5 -13 -10 -21 -10 -8 0 -14 5 -14 10 0 6 9 10 21 10 11 0 17 -4 14
-10z m3905 -10 c0 -11 -6 -20 -13 -20 -19 0 -27 10 -20 26 8 21 33 17 33 -6z
m250 -36 c0 -47 -3 -55 -16 -50 -9 3 -20 6 -25 6 -5 0 -9 23 -9 50 0 47 2 50
25 50 24 0 25 -3 25 -56z m30 -4 c0 -33 -4 -60 -10 -60 -6 0 -10 27 -10 60 0
33 4 60 10 60 6 0 10 -27 10 -60z m60 10 c0 -27 -4 -50 -9 -50 -5 0 -16 -3
-25 -6 -13 -5 -16 3 -16 50 0 53 1 56 25 56 23 0 25 -3 25 -50z m238 2 c3 -37
1 -42 -17 -42 -18 0 -21 6 -21 46 0 38 3 45 18 42 12 -2 18 -15 20 -46z
m-5182 22 c-3 -9 -6 -22 -6 -30 0 -8 -4 -14 -10 -14 -5 0 -10 14 -10 30 0 21
5 30 16 30 11 0 14 -5 10 -16z m5294 -14 c0 -18 -5 -30 -13 -30 -8 0 -12 11
-11 28 3 34 2 32 14 32 6 0 10 -13 10 -30z m-740 -6 c0 -16 -5 -24 -12 -21
-20 6 -18 47 3 47 5 0 9 -12 9 -26z m1574 11 c3 -8 1 -15 -4 -15 -6 0 -10 7
-10 15 0 8 2 15 4 15 2 0 6 -7 10 -15z m-6225 -52 l33 -48 -41 45 c-22 25 -41
49 -41 53 0 15 15 -1 49 -50z m796 32 c0 -28 -29 -25 -33 3 -3 19 0 23 15 20
10 -2 18 -12 18 -23z m45 5 c0 -11 -7 -20 -15 -20 -8 0 -15 9 -15 20 0 11 7
20 15 20 8 0 15 -9 15 -20z m-680 -76 c0 -81 -1 -85 -21 -82 -19 3 -21 9 -21
81 1 42 1 79 2 82 0 3 9 5 20 5 18 0 20 -7 20 -86z m5188 -1 c-3 -80 -5 -88
-23 -88 -18 0 -20 8 -23 88 l-3 87 26 0 26 0 -3 -87z m-5065 70 c-7 -2 -21 -2
-30 0 -10 3 -4 5 12 5 17 0 24 -2 18 -5z m4417 -13 c0 -11 -6 -20 -14 -20 -18
0 -29 16 -21 30 11 18 35 11 35 -10z m513 13 c-7 -2 -19 -2 -25 0 -7 3 -2 5
12 5 14 0 19 -2 13 -5z m-4929 -245 l5 -228 -25 0 -24 0 0 231 c0 225 0 230
20 227 20 -3 20 -12 24 -230z m460 2 l1 -225 -22 -3 -23 -3 0 231 c0 231 0
231 21 228 21 -3 22 -6 23 -228z m4016 0 c0 -223 -1 -230 -20 -230 -19 0 -20
7 -20 230 0 223 1 230 20 230 19 0 20 -7 20 -230z m460 -1 l0 -230 -22 3 c-23
3 -23 6 -25 158 -2 85 0 188 3 228 5 62 8 72 25 72 18 0 19 -10 19 -231z m717
140 c-7 -5 -67 -81 -133 -171 l-119 -162 -3 38 c-3 31 2 45 26 70 16 17 76 95
133 174 l104 144 3 -43 c2 -29 -1 -45 -11 -50z m249 -215 c17 -25 28 -84 15
-84 -3 1 -43 52 -89 116 -46 63 -87 112 -92 109 -4 -3 -13 2 -20 10 -7 8 -17
12 -22 9 -6 -4 -5 4 2 16 10 19 10 24 -4 32 -11 6 -16 23 -16 55 l0 46 105
-141 c57 -78 112 -153 121 -168z m-5771 266 c7 -12 -38 -12 -75 0 -20 7 -16 8
22 9 26 1 50 -3 53 -9z m235 0 c-38 -12 -99 -12 -80 0 8 5 35 9 60 9 37 -1 41
-2 20 -9z m4245 0 c7 -11 -35 -11 -80 0 -26 7 -23 8 22 9 28 0 55 -3 58 -9z
m225 0 c-37 -12 -82 -12 -75 0 3 6 27 10 53 9 38 -1 42 -2 22 -9z m405 -117
c50 -69 103 -139 118 -156 22 -24 27 -38 25 -69 l-3 -38 -73 100 c-41 55 -77
98 -82 95 -4 -3 -14 3 -21 13 -13 15 -12 16 4 3 28 -22 19 -1 -24 56 -25 33
-42 68 -44 89 -2 19 0 34 3 34 4 -1 48 -58 97 -127z m-5297 105 c-7 -20 -48
-23 -48 -4 0 11 9 16 26 16 16 0 24 -5 22 -12z m5052 -3 c0 -8 -9 -15 -20 -15
-11 0 -20 7 -20 15 0 8 9 15 20 15 11 0 20 -7 20 -15z m-4867 -6 l57 -2 0
-170 0 -170 -73 5 c-41 3 -79 8 -85 12 -8 5 -12 57 -12 172 l0 166 28 -6 c15
-4 53 -7 85 -7z m267 -158 l0 -168 -31 -7 c-17 -3 -56 -6 -85 -6 l-54 0 2 168
3 167 70 6 c39 3 76 6 83 7 9 2 12 -37 12 -167z m4258 154 c9 -3 12 -46 12
-171 l0 -167 -73 5 c-41 3 -79 8 -85 12 -8 5 -12 57 -12 170 l0 163 73 -4 c39
-3 78 -6 85 -8z m222 -149 c0 -115 -4 -167 -12 -172 -6 -4 -44 -9 -85 -12
l-73 -5 2 169 3 169 70 6 c39 3 76 6 83 7 9 2 12 -37 12 -162z m-5913 132 c-3
-8 -6 -5 -6 6 -1 11 2 17 5 13 3 -3 4 -12 1 -19z m813 6 c0 -8 -4 -12 -10 -9
-5 3 -10 10 -10 16 0 5 5 9 10 9 6 0 10 -7 10 -16z m38 -82 c2 -77 0 -92 -13
-92 -12 0 -15 16 -15 96 0 72 3 95 13 92 8 -3 13 -34 15 -96z m5292 2 c0 -65
-4 -94 -11 -92 -8 3 -15 125 -9 183 0 3 5 5 10 5 6 0 10 -39 10 -96z m-4893
-167 c-1 -45 -3 -5 -3 88 0 94 2 130 3 82 2 -48 2 -125 0 -170z m4483 88 c0
-103 -4 -165 -10 -165 -6 0 -10 62 -10 165 0 103 4 165 10 165 6 0 10 -62 10
-165z m-4752 123 c3 -24 0 -28 -22 -28 -22 0 -26 4 -26 31 0 26 3 30 23 27 16
-2 23 -11 25 -30z m5052 2 c0 -23 -4 -30 -20 -30 -16 0 -20 7 -20 30 0 23 4
30 20 30 16 0 20 -7 20 -30z m560 16 c0 -2 -8 -10 -17 -17 -16 -13 -17 -12 -4
4 13 16 21 21 21 13z m-6545 -26 c10 -11 16 -20 13 -20 -3 0 -13 9 -23 20 -10
11 -16 20 -13 20 3 0 13 -9 23 -20z m475 16 c0 -2 -8 -10 -17 -17 -16 -13 -17
-12 -4 4 13 16 21 21 21 13z m5771 -13 c13 -16 12 -17 -3 -4 -10 7 -18 15 -18
17 0 8 8 3 21 -13z m-5622 -162 c88 -119 121 -172 121 -192 0 -16 -2 -29 -4
-29 -2 0 -49 61 -105 136 -56 74 -111 143 -122 152 -13 12 -19 29 -19 61 0 24
2 42 4 40 2 -2 59 -78 125 -168z m5516 149 c10 -11 16 -20 13 -20 -3 0 -13 9
-23 20 -10 11 -16 20 -13 20 3 0 13 -9 23 -20z m-5705 6 c0 -2 -8 -10 -17 -17
-16 -13 -17 -12 -4 4 13 16 21 21 21 13z m18 -104 c-18 -21 -76 -95 -128 -165
-52 -70 -97 -127 -100 -127 -4 0 -4 17 -2 38 3 25 18 53 46 87 57 68 176 230
176 240 0 4 -8 1 -17 -6 -16 -13 -17 -12 -4 3 7 10 17 16 21 13 4 -3 14 3 21
12 12 14 14 12 17 -21 3 -30 -3 -44 -30 -74z m6363 91 c13 -16 12 -17 -3 -4
-10 7 -18 15 -18 17 0 8 8 3 21 -13z m-6162 -113 c51 -66 89 -125 86 -130 -4
-6 -1 -19 5 -28 7 -9 -1 -2 -18 16 -41 46 -100 130 -79 113 37 -30 21 -3 -86
137 -5 6 -7 12 -5 12 3 0 47 -54 97 -120z m5861 116 c0 -2 -8 -10 -17 -17 -16
-13 -17 -12 -4 4 13 16 21 21 21 13z m-6343 -272 c3 3 -9 24 -28 48 -54 71
-57 75 -36 59 9 -7 17 -9 17 -3 0 12 -25 34 -32 27 -3 -3 -11 3 -19 12 -13 16
-12 17 4 4 10 -8 17 -9 17 -3 0 6 -3 13 -8 16 -11 6 -74 96 -68 96 5 0 137
-169 175 -225 11 -16 9 -15 -12 4 -15 14 -27 20 -27 14 0 -6 7 -16 15 -23 9
-7 13 -21 10 -31 -4 -10 1 -21 10 -27 12 -6 15 -19 13 -45 l-3 -37 -117 155
c-101 132 -118 159 -118 191 0 36 3 33 101 -100 56 -75 104 -135 106 -132z
m6104 249 c13 -16 12 -17 -3 -4 -10 7 -18 15 -18 17 0 8 8 3 21 -13z m-5346
-3 c4 -6 -5 -10 -19 -10 -14 0 -26 5 -26 10 0 6 9 10 19 10 11 0 23 -4 26 -10z
m5055 0 c0 -5 -9 -10 -20 -10 -11 0 -20 5 -20 10 0 6 9 10 20 10 11 0 20 -4
20 -10z m680 -38 c-41 -4 -48 3 -24 29 l19 21 18 -24 19 -23 -32 -3z m-6284 5
c-30 -39 -34 -56 -8 -36 15 13 16 12 3 -4 -8 -9 -16 -15 -19 -12 -7 7 -32 -15
-32 -27 0 -6 8 -4 17 3 21 17 -38 -68 -76 -108 -14 -16 -23 -24 -18 -19 13 19
7 29 -10 15 -14 -12 -16 -12 -8 0 17 28 166 221 171 221 3 0 -6 -15 -20 -33z
m484 -7 c0 -33 -3 -40 -20 -40 -17 0 -20 7 -20 40 0 33 3 40 20 40 17 0 20 -7
20 -40z m5170 5 c0 -24 -5 -35 -15 -35 -10 0 -15 11 -15 35 0 24 5 35 15 35
10 0 15 -11 15 -35z m141 18 c13 -16 12 -17 -3 -4 -10 7 -18 15 -18 17 0 8 8
3 21 -13z m670 0 c13 -16 12 -17 -3 -4 -17 13 -22 21 -14 21 2 0 10 -8 17 -17z
m-5341 -19 c0 -8 -4 -14 -10 -14 -5 0 -10 9 -10 21 0 11 5 17 10 14 6 -3 10
-13 10 -21z m4780 11 c0 13 25 -13 60 -62 19 -26 26 -41 15 -33 -17 14 -18 13
-12 -2 10 -28 3 -22 -33 30 -19 26 -26 41 -17 33 9 -7 17 -9 17 -3 0 12 -25
34 -32 27 -3 -3 -11 3 -19 12 -13 16 -12 17 4 4 9 -7 17 -10 17 -6z m-5870 1
c0 -2 -8 -10 -17 -17 -16 -13 -17 -12 -4 4 13 16 21 21 21 13z m520 -21 c0
-20 -5 -25 -25 -25 -20 0 -25 5 -25 25 0 20 5 25 25 25 20 0 25 -5 25 -25z
m5050 0 c0 -18 -5 -25 -20 -25 -15 0 -20 7 -20 25 0 18 5 25 20 25 15 0 20 -7
20 -25z m-597 9 c9 -9 -4 -35 -14 -28 -5 3 -9 12 -9 20 0 14 12 19 23 8z
m1469 -9 c3 3 11 -3 19 -12 13 -16 12 -17 -3 -4 -10 7 -18 9 -18 3 0 -12 25
-34 32 -27 3 3 11 -3 19 -12 13 -16 12 -17 -3 -4 -25 19 -23 -2 2 -24 11 -10
20 -23 20 -29 0 -12 -18 9 -72 84 -18 25 -25 39 -17 33 9 -7 18 -11 21 -8z
m-5314 -12 c-5 -25 -28 -28 -28 -4 0 12 6 21 16 21 9 0 14 -7 12 -17z m3812
-4 c0 -24 -23 -21 -28 4 -2 10 3 17 12 17 10 0 16 -9 16 -21z m1381 4 c13 -16
12 -17 -3 -4 -10 7 -18 15 -18 17 0 8 8 3 21 -13z m-5235 -32 c-7 -11 -36 -16
-36 -6 0 3 6 12 13 20 13 15 33 3 23 -14z m4754 -91 c51 -67 101 -125 110
-130 26 -14 52 10 150 139 l85 111 60 -3 59 -2 94 -122 94 -122 2 -105 c0 -58
-1 -106 -4 -105 -3 0 -54 59 -114 130 -82 98 -114 129 -132 129 -18 0 -52 -34
-146 -144 -68 -80 -126 -145 -129 -145 -4 -1 -55 55 -114 125 -59 69 -109 123
-112 120 -3 -2 48 -66 112 -141 122 -141 155 -194 48 -77 -104 114 -182 216
-170 224 8 5 7 11 -1 21 -8 9 -14 55 -15 116 -2 87 0 101 14 101 9 0 58 -54
109 -120z m-5631 -79 l121 -154 0 -94 c0 -52 -4 -93 -8 -91 -4 2 -57 56 -116
121 -78 85 -115 117 -131 117 -17 0 -56 -36 -147 -135 -68 -74 -127 -134 -131
-132 -5 1 -62 61 -127 132 l-119 130 -1 119 0 119 112 -141 c118 -150 137
-164 175 -123 10 11 68 83 128 159 61 77 113 137 116 134 4 -4 61 -76 128
-161z m4781 159 c0 -5 -6 -10 -14 -10 -8 0 -18 5 -21 10 -3 6 3 10 14 10 12 0
21 -4 21 -10z m648 -37 c-3 -41 -6 -48 -25 -51 -21 -3 -23 0 -23 47 0 48 2 51
26 51 24 0 25 -2 22 -47z m-5188 -9 c0 -41 -2 -45 -21 -42 -18 2 -22 10 -23
46 -1 37 2 42 22 42 20 0 22 -5 22 -46z m680 26 c0 -11 -7 -20 -15 -20 -8 0
-15 9 -15 20 0 11 7 20 15 20 8 0 15 -9 15 -20z m3810 0 c0 -11 -4 -20 -9 -20
-14 0 -23 18 -16 30 10 17 25 11 25 -10z m-4430 0 c0 -5 -9 -10 -20 -10 -11 0
-20 5 -20 10 0 6 9 10 20 10 11 0 20 -4 20 -10z m5060 0 c0 -5 -9 -10 -20 -10
-11 0 -20 5 -20 10 0 6 9 10 20 10 11 0 20 -4 20 -10z m-4480 -20 c0 -5 -9
-10 -20 -10 -11 0 -20 5 -20 10 0 6 9 10 20 10 11 0 20 -4 20 -10z m-572 -22
c3 -13 -3 -18 -22 -18 -20 0 -26 5 -26 21 0 15 5 20 22 17 13 -2 24 -11 26
-20z m4472 7 c0 -8 -6 -15 -14 -15 -17 0 -28 14 -19 24 12 12 33 6 33 -9z
m580 -6 c0 -15 -4 -19 -16 -15 -9 3 -18 6 -20 6 -2 0 -4 7 -4 15 0 8 9 15 20
15 14 0 20 -7 20 -21z m-4490 -9 c0 -5 -7 -10 -15 -10 -8 0 -15 5 -15 10 0 6
7 10 15 10 8 0 15 -4 15 -10z m50 -11 c0 -24 -23 -21 -28 4 -2 10 3 17 12 17
10 0 16 -9 16 -21z m3810 1 c0 -11 -4 -20 -10 -20 -5 0 -10 9 -10 20 0 11 5
20 10 20 6 0 10 -9 10 -20z m-3855 -20 c3 -5 -3 -10 -14 -10 -12 0 -21 5 -21
10 0 6 6 10 14 10 8 0 18 -4 21 -10z m-565 -40 c0 -36 -2 -40 -25 -40 -22 0
-25 4 -25 40 0 36 3 40 25 40 23 0 25 -4 25 -40z m4470 20 c0 -11 -6 -20 -14
-20 -18 0 -29 16 -21 30 11 18 35 11 35 -10z m580 -20 c0 -33 -3 -40 -20 -40
-17 0 -20 7 -20 40 0 33 3 40 20 40 17 0 20 -7 20 -40z m-4440 0 c0 -11 -7
-20 -15 -20 -8 0 -15 9 -15 20 0 11 7 20 15 20 8 0 15 -9 15 -20z m3810 0 c0
-11 -4 -20 -10 -20 -5 0 -10 9 -10 20 0 11 5 20 10 20 6 0 10 -9 10 -20z
m-3850 -10 c0 -13 -7 -20 -20 -20 -13 0 -20 7 -20 20 0 13 7 20 20 20 13 0 20
-7 20 -20z m-402 -6 c6 -2 12 -15 12 -29 0 -24 -3 -25 -55 -25 l-55 0 0 35 0
35 43 -6 c23 -3 48 -7 55 -10z m282 -19 l0 -35 -51 0 c-49 0 -50 1 -47 28 3
23 9 28 43 33 22 3 43 7 48 8 4 0 7 -15 7 -34z m4188 19 c6 -2 12 -15 12 -29
0 -23 -3 -25 -50 -25 l-50 0 0 34 c0 34 0 35 38 30 20 -3 43 -7 50 -10z m292
-20 l0 -35 -52 3 c-46 3 -53 6 -56 25 -3 23 3 26 68 36 14 3 28 5 33 6 4 0 7
-15 7 -35z m-460 11 c0 -8 -6 -15 -14 -15 -17 0 -28 14 -19 24 12 12 33 6 33
-9z m-5183 -1 c-3 -3 -12 -4 -19 -1 -8 3 -5 6 6 6 11 1 17 -2 13 -5z m953 -34
c0 -36 -2 -40 -25 -40 -22 0 -25 4 -25 40 0 36 3 40 25 40 23 0 25 -4 25 -40z
m27 -22 c-2 -13 -4 -3 -4 22 0 25 2 35 4 23 2 -13 2 -33 0 -45z m63 22 c0 -36
-2 -40 -25 -40 -22 0 -25 4 -25 40 0 36 3 40 25 40 23 0 25 -4 25 -40z m4390
0 c0 -36 -2 -40 -25 -40 -22 0 -25 4 -25 40 0 36 3 40 25 40 23 0 25 -4 25
-40z m30 0 c0 -22 -4 -40 -10 -40 -5 0 -10 18 -10 40 0 22 5 40 10 40 6 0 10
-18 10 -40z m60 0 c0 -36 -2 -40 -25 -40 -22 0 -25 4 -25 40 0 36 3 40 25 40
23 0 25 -4 25 -40z m927 24 c-3 -3 -12 -4 -19 -1 -8 3 -5 6 6 6 11 1 17 -2 13
-5z m-550 -26 c-3 -8 -6 -5 -6 6 -1 11 2 17 5 13 3 -3 4 -12 1 -19z m808 12
c3 -5 1 -10 -4 -10 -6 0 -11 5 -11 10 0 6 2 10 4 10 3 0 8 -4 11 -10z m-313
-27 c-41 -57 -214 -254 -219 -249 -3 2 48 66 112 140 112 130 149 168 107 109z
m190 -108 c99 -117 126 -153 89 -120 -31 27 -211 242 -211 251 0 11 10 0 122
-131z m-5829 108 c-7 -2 -19 -2 -25 0 -7 3 -2 5 12 5 14 0 19 -2 13 -5z m4940
0 c-7 -2 -19 -2 -25 0 -7 3 -2 5 12 5 14 0 19 -2 13 -5z m671 -75 c-100 -123
-176 -210 -181 -204 -3 2 32 46 76 96 45 51 98 114 119 140 20 26 39 46 41 44
2 -2 -23 -36 -55 -76z m132 25 c21 -27 28 -39 15 -28 -24 21 -66 75 -58 75 3
0 22 -21 43 -47z m-128 -109 c-35 -38 -96 -102 -135 -144 -69 -71 -73 -73 -73
-47 0 19 10 36 29 53 16 13 75 81 132 150 l104 127 3 -36 c3 -31 -4 -43 -60
-103z m151 49 c29 -35 56 -61 60 -58 8 4 87 -75 110 -110 7 -11 -14 9 -48 45
-73 79 -81 71 -10 -11 44 -52 73 -110 52 -108 -5 0 -30 26 -57 57 -27 31 -80
89 -117 129 -60 63 -69 77 -69 110 0 42 -6 47 79 -54z m-6792 25 c-3 -7 -5 -2
-5 12 0 14 2 19 5 13 2 -7 2 -19 0 -25z m550 26 c-3 -3 -12 -4 -19 -1 -8 3 -5
6 6 6 11 1 17 -2 13 -5z m5728 -100 c49 -58 102 -119 118 -135 19 -19 27 -37
25 -53 -3 -20 -19 -6 -122 106 -90 98 -119 136 -120 158 -1 17 1 30 4 30 3 0
46 -48 95 -106z m-5465 86 c0 -5 -4 -10 -10 -10 -5 0 -10 5 -10 10 0 6 5 10
10 10 6 0 10 -4 10 -10z m-371 -81 c-108 -119 -173 -187 -158 -164 17 25 220
245 227 245 2 0 -29 -37 -69 -81z m322 -134 c17 -22 -12 4 -65 58 -53 54 -105
113 -117 130 -25 38 138 -130 182 -188z m-582 36 c40 -44 69 -81 64 -81 -18 0
-224 227 -223 246 1 5 20 -12 43 -37 23 -26 75 -83 116 -128z m351 92 c0 -28
-17 -48 -125 -155 -69 -68 -129 -124 -134 -126 -16 -5 2 49 19 58 16 9 207
220 224 248 19 31 -10 3 -109 -108 -58 -66 -111 -120 -117 -120 -6 0 20 33 58
73 38 39 92 98 118 130 52 62 66 62 66 0z m81 -5 c41 -49 45 -55 15 -28 -37
34 -82 90 -73 90 3 0 29 -28 58 -62z m6214 42 c10 -11 16 -20 13 -20 -3 0 -13
9 -23 20 -10 11 -16 20 -13 20 3 0 13 -9 23 -20z m-6569 -240 c8 0 14 -4 14
-10 0 -24 -27 -5 -92 63 -38 39 -92 99 -120 132 -28 33 2 5 66 -62 65 -68 124
-123 132 -123z m433 94 c9 6 46 -26 86 -74 16 -19 4 -10 -28 20 -31 30 -57 50
-57 44 0 -5 23 -32 50 -59 28 -27 50 -58 50 -68 0 -10 -4 -17 -10 -15 -5 2
-61 54 -125 117 -104 104 -115 117 -115 150 l0 36 71 -78 c39 -42 74 -75 78
-73z m6265 -179 c0 -30 -2 -55 -6 -55 -4 0 -58 36 -120 80 -62 44 -118 80
-124 80 -12 0 -33 -14 -180 -116 -51 -35 -97 -64 -103 -64 -6 0 -11 -5 -11
-11 0 -11 -202 124 -223 150 -17 21 -2 12 116 -72 54 -38 100 -67 103 -65 2 3
-48 43 -112 89 l-116 84 -2 93 c0 50 -1 92 0 92 0 0 54 -54 119 -120 66 -66
124 -120 130 -120 5 0 71 61 145 136 l135 135 124 -130 123 -130 2 -56z
m-6782 127 c48 -51 78 -92 78 -105 0 -17 -27 5 -120 98 -101 101 -120 124
-120 150 l1 30 41 -45 c23 -25 77 -82 120 -128z m6227 43 c0 -11 -47 43 -80
90 -12 17 2 5 30 -25 28 -30 50 -59 50 -65z m-5717 -86 c107 -103 109 -107
106 -146 l-3 -40 -119 69 c-66 37 -124 68 -130 68 -6 0 -71 -34 -145 -75
l-133 -74 -124 72 -124 72 0 83 0 84 117 -111 c65 -61 123 -111 130 -111 13 0
174 142 242 214 40 42 18 55 183 -105z m5755 75 c-3 -3 -12 -4 -19 -1 -8 3 -5
6 6 6 11 1 17 -2 13 -5z m-270 -96 c-3 -8 -6 -5 -6 6 -1 11 2 17 5 13 3 -3 4
-12 1 -19z m550 16 c-3 -3 -12 -4 -19 -1 -8 3 -5 6 6 6 11 1 17 -2 13 -5z
m-56 -17 c-11 -15 -147 -113 -196 -142 -56 -34 -11 3 95 79 109 78 120 85 101
63z m29 -25 c0 -9 -147 -119 -202 -152 -21 -12 -38 -17 -38 -12 0 6 28 26 63
46 34 19 87 55 117 80 60 50 60 49 60 38z m75 -28 c17 -14 21 -21 10 -16 -30
16 -61 41 -50 41 6 0 24 -11 40 -25z m-6221 8 c3 -5 -1 -9 -9 -9 -8 0 -12 4
-9 9 3 4 7 8 9 8 2 0 6 -4 9 -8z m5691 -28 l40 -35 -47 31 c-27 17 -48 33 -48
35 0 12 18 2 55 -31z m465 4 c0 -16 -12 -30 -38 -45 -63 -38 -224 -114 -229
-109 -3 2 15 13 39 24 24 11 81 49 128 85 47 36 88 66 93 66 4 1 7 -9 7 -21z
m143 -63 c66 -44 115 -81 110 -82 -5 -2 -61 25 -126 59 -97 53 -117 67 -117
86 0 13 3 22 8 20 4 -1 60 -39 125 -83z m42 22 c6 -5 -4 -2 -20 6 -17 8 -39
25 -50 38 -16 19 -13 18 20 -6 22 -16 45 -33 50 -38z m-6747 -12 c56 -32 101
-59 98 -62 -5 -6 -204 106 -213 119 -3 6 -2 9 3 6 5 -3 55 -31 112 -63z m362
61 c0 -5 -111 -71 -170 -101 -83 -41 -52 -19 63 47 105 59 107 60 107 54z
m5791 -76 c56 -38 109 -70 116 -70 7 0 13 -4 13 -10 0 -5 -2 -10 -4 -10 -19 0
-240 133 -242 145 -1 8 1 15 6 15 4 0 54 -31 111 -70z m-5771 46 c0 -6 -134
-93 -179 -115 -23 -12 -48 -20 -54 -18 -7 2 18 18 54 34 36 17 90 47 120 67
54 36 59 39 59 32z m175 -53 c11 -7 15 -13 10 -13 -13 0 -85 48 -85 57 0 5 25
-9 75 -44z m-635 16 l25 -20 -32 16 c-18 8 -33 18 -33 20 0 10 16 4 40 -16z
m470 0 c0 -16 -17 -28 -76 -55 -41 -19 -79 -34 -84 -32 -7 2 140 102 158 107
1 1 2 -8 2 -20z m225 -97 l20 -14 -20 6 c-11 4 -63 24 -115 45 -76 30 -96 42
-98 60 -3 21 4 18 95 -30 54 -29 107 -59 118 -67z m6023 73 c34 -21 62 -39 62
-40 0 -1 -61 -1 -134 -1 -74 1 -132 4 -128 8 15 15 125 77 131 74 3 -1 34 -20
69 -41z m-6603 -63 c-9 -9 -165 61 -165 74 0 10 26 1 85 -28 46 -23 82 -44 80
-46z m6056 61 c46 -26 68 -53 33 -39 -9 3 -33 6 -53 6 -36 0 -38 2 -37 30 1
16 3 30 5 30 1 0 25 -12 52 -27z m154 -17 c11 -8 17 -16 12 -16 -10 0 -87 49
-87 55 0 7 49 -19 75 -39z m-5795 -16 l35 -19 -82 -1 c-46 0 -83 2 -83 5 0 8
62 34 80 34 8 0 31 -8 50 -19z m-544 -5 c18 -14 18 -14 -8 -15 -18 0 -28 5
-28 15 0 19 11 19 36 0z m6262 -22 c-16 -2 -40 -2 -55 0 -16 2 -3 4 27 4 30 0
43 -2 28 -4z m265 0 c-7 -2 -19 -2 -25 0 -7 3 -2 5 12 5 14 0 19 -2 13 -5z
m-6303 -7 c0 -3 -4 -8 -10 -11 -5 -3 -10 -1 -10 4 0 6 5 11 10 11 6 0 10 -2
10 -4z"/>
<path d="M1635 4794 c-50 -22 -68 -37 -111 -92 -43 -57 -55 -83 -78 -170 -29
-110 -30 -105 18 -160 l20 -23 13 38 12 38 -2 -49 c-1 -46 1 -50 27 -59 21 -7
31 -6 37 4 7 12 9 12 9 0 0 -9 8 -11 27 -6 36 9 34 6 23 43 -5 20 -5 30 1 27
5 -4 9 -15 9 -26 0 -24 22 -25 42 -1 21 23 16 76 -10 112 -25 33 -21 55 11 64
39 10 64 6 90 -14 27 -22 44 -25 66 -11 12 8 10 16 -14 46 -38 51 -87 71 -137
56 -33 -10 -37 -15 -34 -39 2 -15 1 -19 -1 -9 -7 26 -19 21 -43 -18 -12 -19
-24 -35 -26 -35 -11 0 -1 20 34 65 34 46 41 50 83 53 61 5 100 -16 139 -73 28
-41 48 -52 82 -46 10 1 77 -71 78 -83 0 -5 -11 1 -24 13 l-24 23 -5 -28 c-3
-25 -4 -24 -6 8 -1 31 -6 38 -31 47 -31 10 -33 9 -31 -24 1 -16 -1 -16 -10 5
-13 32 -12 32 -42 21 -24 -9 -26 -13 -17 -37 6 -15 8 -29 6 -32 -3 -2 -8 7
-12 22 -3 14 -9 26 -14 26 -17 0 -45 -44 -42 -68 5 -42 24 -83 36 -79 7 3 10
-11 7 -42 -3 -26 -7 -36 -9 -23 -3 19 -8 21 -25 15 -36 -12 -67 -6 -91 16 -19
18 -27 20 -51 11 l-27 -10 25 -33 c39 -51 80 -70 132 -62 30 4 45 11 45 21 0
8 4 13 9 10 5 -4 19 10 31 29 12 20 25 34 28 31 3 -4 -9 -24 -26 -45 -18 -22
-32 -44 -32 -49 0 -5 -21 -12 -47 -15 -63 -7 -112 18 -153 78 -24 35 -37 45
-58 45 -19 0 -40 13 -67 40 -21 22 -42 40 -46 40 -3 0 2 -40 12 -89 26 -126
84 -216 173 -266 59 -33 106 -45 106 -27 0 4 10 18 21 32 l20 25 -16 -32 c-20
-42 -8 -43 68 -9 40 17 65 39 104 88 46 57 55 76 78 169 21 82 24 108 15 122
-7 13 -8 23 -1 31 7 8 4 40 -10 98 -14 67 -30 104 -65 158 -42 65 -52 74 -121
108 -74 36 -76 37 -89 17 -7 -11 -20 -29 -29 -40 -15 -18 -15 -17 0 12 25 52
25 52 -60 17z m173 -23 c31 -16 66 -38 76 -50 19 -21 19 -21 -5 -21 -13 0 -51
11 -83 24 -33 13 -65 22 -73 19 -7 -3 -13 -1 -13 4 0 10 29 53 36 53 2 0 30
-13 62 -29z m-142 -9 c-20 -39 -46 -59 -83 -64 -18 -3 -33 -3 -33 0 0 14 47
58 78 73 51 24 55 23 38 -9z m62 -42 c68 0 146 -58 177 -133 21 -50 4 -40 -19
12 -28 60 -92 102 -163 104 -56 2 -58 1 -64 -28 -5 -23 -7 -25 -8 -7 -1 31 -9
28 -59 -20 -24 -24 -40 -35 -37 -26 4 9 31 36 61 59 30 23 54 46 54 52 0 7 4
7 12 -1 7 -7 27 -12 46 -12z m-165 -47 c-7 -2 -19 -2 -25 0 -7 3 -2 5 12 5 14
0 19 -2 13 -5z m185 0 c-10 -2 -28 -2 -40 0 -13 2 -5 4 17 4 22 1 32 -1 23 -4z
m159 1 c-3 -3 -12 -4 -19 -1 -8 3 -5 6 6 6 11 1 17 -2 13 -5z m-367 -38 c0 -2
-11 -28 -25 -57 -13 -30 -27 -83 -31 -121 -5 -56 -9 -66 -20 -57 -8 6 -14 23
-14 37 0 21 27 134 45 190 4 11 45 18 45 8z m90 -7 c0 -6 -14 -29 -31 -50 -40
-51 -63 -136 -54 -203 6 -41 5 -49 -6 -39 -19 19 -12 138 13 203 27 71 78 129
78 89z m243 -46 c29 -55 23 -74 -8 -25 -9 15 -31 40 -49 55 l-31 28 30 -3 c25
-3 35 -12 58 -55z m81 30 c7 -16 17 -44 21 -63 3 -19 9 -44 12 -55 12 -42 -26
6 -46 58 -10 29 -22 60 -26 70 -12 29 23 20 39 -10z m-196 -24 c28 -10 69 -55
59 -65 -2 -3 -21 5 -41 17 -23 13 -47 20 -66 17 -23 -4 -30 -1 -30 12 0 32 24
38 78 19z m-232 -60 c-9 -19 -15 -26 -16 -17 0 21 23 74 27 61 2 -5 -3 -25
-11 -44z m114 2 c0 -5 -7 -25 -16 -46 -9 -23 -14 -60 -13 -94 3 -68 -15 -76
-19 -8 -3 52 22 157 38 157 6 0 10 -4 10 -9z m3 -71 c-3 -12 -8 -19 -11 -16
-5 6 5 36 12 36 2 0 2 -9 -1 -20z m210 -26 c7 -43 -8 -124 -28 -150 -14 -18
-14 -18 -15 2 0 11 5 25 12 32 7 7 12 42 12 82 1 76 10 92 19 34z m67 -31 c0
-79 -36 -187 -75 -223 -23 -21 -25 -22 -25 -5 0 10 11 30 24 44 33 36 56 113
56 188 0 35 4 63 10 63 6 0 10 -29 10 -67z m-353 25 c-3 -8 -6 -5 -6 6 -1 11
2 17 5 13 3 -3 4 -12 1 -19z m109 -25 c-2 -15 -9 -29 -15 -31 -9 -3 -11 6 -8
29 6 43 5 41 16 34 5 -3 8 -17 7 -32z m114 -4 c0 -24 -4 -38 -10 -34 -17 10
-11 75 7 75 2 0 3 -18 3 -41z m210 -30 c0 -22 -51 -193 -61 -205 -6 -8 -20
-14 -30 -14 -16 0 -15 5 10 53 15 28 33 87 41 131 12 70 15 77 27 60 7 -10 13
-21 13 -25z m-123 -11 c-3 -8 -6 -5 -6 6 -1 11 2 17 5 13 3 -3 4 -12 1 -19z
m-397 -49 c6 -11 24 -51 40 -90 21 -51 24 -69 14 -69 -21 0 -47 47 -65 117
-15 62 -10 82 11 42z m449 -31 c-8 -28 -29 -62 -29 -46 0 10 30 78 34 78 3 0
0 -14 -5 -32z m-263 -9 c16 -15 35 -21 64 -21 33 1 41 -3 38 -16 -5 -24 -48
-31 -83 -14 -33 16 -66 52 -59 64 8 12 16 10 40 -13z m-70 -41 c8 -15 33 -38
57 -50 40 -22 41 -23 15 -26 -15 -2 -39 4 -53 14 -25 16 -65 81 -65 105 0 17
28 -9 46 -43z m9 -80 c47 -39 70 -48 124 -48 46 0 51 2 51 23 0 17 2 19 10 7
7 -12 13 -11 36 10 16 14 36 34 46 45 9 11 17 15 18 9 1 -31 -114 -120 -149
-116 -90 11 -170 63 -198 129 -20 49 -15 53 10 7 12 -23 36 -53 52 -66z m158
5 c-7 -2 -19 -2 -25 0 -7 3 -2 5 12 5 14 0 19 -2 13 -5z m-159 -46 c17 -13 52
-29 79 -37 52 -14 53 -16 32 -45 -15 -19 -16 -19 -79 12 -35 18 -73 45 -86 62
l-21 31 22 0 c12 0 36 -10 53 -23z m134 16 c-16 -2 -40 -2 -55 0 -16 2 -3 4
27 4 30 0 43 -2 28 -4z m163 -10 c-22 -37 -49 -62 -85 -77 -37 -15 -37 -15
-31 7 9 31 75 87 103 87 19 0 21 -3 13 -17z"/>
<path d="M1415 4780 c-9 -28 12 -52 44 -48 22 2 26 8 26 33 0 26 -4 30 -32 33
-25 2 -33 -1 -38 -18z"/>
<path d="M1934 4786 c-12 -31 0 -51 31 -51 27 0 30 4 33 33 3 30 1 32 -28 32
-17 0 -33 -6 -36 -14z"/>
<path d="M1686 4517 c-17 -13 -17 -15 -2 -45 20 -39 44 -41 76 -7 21 22 22 27
9 40 -22 21 -62 28 -83 12z m64 -17 c13 -8 13 -11 -2 -26 -20 -21 -48 -12 -48
16 0 22 24 27 50 10z"/>
<path d="M1704 4354 c-47 -25 -51 -33 -25 -55 25 -20 57 -24 80 -10 12 8 12
14 1 40 -17 41 -21 43 -56 25z m36 -18 c0 -2 3 -11 6 -20 5 -12 0 -16 -19 -16
-28 0 -42 14 -32 30 6 10 45 15 45 6z"/>
<path d="M1426 4065 c-19 -20 -20 -26 -3 -49 26 -36 84 4 61 42 -15 23 -38 26
-58 7z"/>
<path d="M1940 4065 c-24 -29 8 -75 44 -62 21 8 22 63 0 71 -23 9 -30 8 -44
-9z"/>
<path d="M5215 4794 c-51 -21 -68 -34 -111 -92 -44 -57 -55 -82 -78 -168 -14
-55 -26 -103 -26 -107 0 -3 14 -23 32 -43 l32 -36 12 38 13 39 -2 -49 c-1 -40
2 -51 18 -57 32 -12 43 -10 48 9 4 15 5 15 6 -2 1 -14 6 -17 24 -12 12 3 25 6
30 6 4 0 5 12 2 28 -5 26 -5 26 5 3 l10 -24 24 22 c18 17 23 31 21 55 -4 42
-26 78 -44 71 -9 -4 -11 0 -6 12 8 20 7 84 -2 93 -3 3 -11 -4 -19 -15 -29 -43
-43 -60 -44 -49 0 6 17 33 38 60 34 45 41 49 83 52 61 5 100 -16 139 -73 28
-41 45 -51 85 -46 20 2 33 -35 25 -70 l-8 -34 -1 37 c-1 31 -5 38 -31 46 -20
8 -32 8 -36 0 -4 -7 -9 -6 -14 1 -11 19 -59 -4 -56 -26 2 -10 1 -12 -1 -5 -6
17 -17 15 -39 -9 -22 -24 -20 -71 3 -108 l16 -24 13 24 c7 13 13 20 13 14 0
-5 -6 -21 -13 -34 -8 -14 -12 -30 -10 -36 3 -6 -6 -12 -18 -13 -60 -7 -80 -3
-102 17 -19 18 -27 20 -50 11 -29 -10 -28 -13 7 -62 35 -48 121 -64 156 -29
11 11 21 17 24 15 3 -3 15 11 27 31 12 20 25 34 28 31 3 -4 -9 -24 -26 -45
-18 -22 -32 -44 -32 -49 0 -5 -23 -12 -51 -15 -65 -8 -99 9 -141 68 -24 33
-40 46 -66 51 -21 4 -48 22 -73 48 -46 49 -48 41 -24 -75 12 -54 27 -90 63
-143 41 -61 56 -76 116 -107 39 -21 75 -35 82 -32 6 2 20 19 30 38 10 19 20
33 22 31 2 -2 -4 -18 -13 -35 -19 -37 -14 -38 59 -10 46 18 66 34 110 88 48
60 56 77 81 174 l28 107 -32 40 c-32 41 -30 57 2 19 10 -11 20 -19 23 -17 6 7
-32 171 -46 198 -50 94 -85 132 -152 166 -37 19 -72 34 -78 34 -6 0 -20 -16
-32 -35 -11 -20 -23 -34 -25 -31 -3 3 2 15 11 28 32 45 24 46 -59 12z m174
-25 c53 -30 81 -54 81 -70 0 -9 -51 2 -75 17 -20 12 -84 29 -97 26 -5 -1 -8 1
-8 6 0 10 30 52 37 52 3 0 31 -14 62 -31z m-149 6 c0 -17 -26 -55 -44 -63 -25
-12 -66 -22 -66 -16 0 3 8 16 17 31 19 28 93 67 93 48z m64 -54 c76 -4 149
-58 180 -134 20 -48 5 -40 -18 10 -10 21 -38 53 -62 71 -37 27 -55 33 -102 35
-55 2 -57 1 -63 -28 -5 -23 -7 -25 -8 -7 -1 31 -9 28 -59 -20 -24 -24 -40 -35
-37 -26 4 9 28 34 53 55 26 20 51 44 56 51 4 8 11 10 15 5 3 -5 24 -10 45 -12z
m-167 -47 c-3 -3 -12 -4 -19 -1 -8 3 -5 6 6 6 11 1 17 -2 13 -5z m201 -1 c-16
-2 -40 -2 -55 0 -16 2 -3 4 27 4 30 0 43 -2 28 -4z m145 0 c-7 -2 -19 -2 -25
0 -7 3 -2 5 12 5 14 0 19 -2 13 -5z m-381 -68 c-12 -19 -28 -73 -38 -120 -15
-74 -19 -84 -31 -72 -12 12 -11 26 7 98 27 112 35 129 61 129 l21 0 -20 -35z
m98 21 c0 -8 -11 -27 -23 -43 -34 -41 -57 -117 -57 -190 0 -40 -4 -62 -10 -58
-5 3 -10 34 -10 67 0 72 32 171 68 211 30 31 32 32 32 13z m221 1 c9 -7 26
-31 38 -55 30 -58 5 -56 -32 3 -16 25 -35 45 -42 45 -8 0 -17 5 -20 10 -9 14
37 12 56 -3z m108 -9 c6 -13 18 -49 25 -81 19 -82 -1 -69 -41 26 -29 69 -30
77 -14 77 10 0 23 -10 30 -22z m-423 -89 c-9 -19 -15 -26 -16 -17 0 21 23 74
27 61 2 -5 -3 -25 -11 -44z m93 -42 c-8 -18 -13 -60 -13 -94 2 -70 -10 -85
-19 -23 -5 43 6 111 25 148 17 34 23 7 7 -31z m-48 -43 c-5 -16 -10 -21 -10
-12 -1 18 10 51 15 45 2 -1 -1 -16 -5 -33z m277 -46 c-5 -83 -23 -137 -39
-121 -8 8 -6 20 6 42 9 19 17 58 17 92 0 32 5 59 11 59 5 0 7 -29 5 -72z m64
-13 c-4 -99 -57 -225 -94 -225 -17 0 -7 26 26 67 39 49 62 140 52 204 -5 31
-3 40 6 36 10 -3 12 -25 10 -82z m-242 20 c0 -19 -4 -35 -10 -35 -5 0 -10 16
-10 35 0 19 5 35 10 35 6 0 10 -16 10 -35z m120 -5 c0 -22 -4 -40 -9 -40 -13
0 -18 19 -13 52 6 42 22 34 22 -12z m193 -4 c15 -22 14 -31 -10 -122 -28 -108
-36 -124 -64 -124 -16 0 -15 7 12 66 20 44 32 90 36 135 3 38 7 69 8 69 2 0
10 -11 18 -24z m-106 -38 c-3 -8 -6 -5 -6 6 -1 11 2 17 5 13 3 -3 4 -12 1 -19z
m-386 -85 c11 -27 28 -65 38 -85 19 -37 19 -38 0 -38 -23 0 -50 48 -64 118
-14 65 0 68 26 5z m434 -8 c-9 -20 -18 -35 -21 -33 -2 3 3 22 11 43 9 20 18
35 21 33 2 -3 -3 -22 -11 -43z m-265 4 c16 -13 45 -22 67 -23 27 -1 38 -5 38
-16 0 -11 -12 -15 -49 -14 -40 0 -53 5 -72 28 -40 46 -31 59 16 25z m-77 -28
c14 -21 43 -49 64 -62 l38 -24 -28 -3 c-36 -4 -62 18 -93 81 -29 57 -17 62 19
8z m40 -109 c37 -26 55 -32 96 -32 44 0 53 3 61 23 5 12 9 16 9 10 1 -21 14
-15 59 28 23 23 42 37 42 33 0 -14 -12 -26 -70 -75 l-55 -46 -64 13 c-51 11
-73 21 -104 51 -40 39 -67 82 -67 105 1 7 11 -7 24 -32 14 -26 43 -59 69 -78z
m134 22 c-3 -3 -12 -4 -19 -1 -8 3 -5 6 6 6 11 1 17 -2 13 -5z m-7 -28 c8 -2
-9 -4 -37 -5 -29 0 -53 3 -53 7 0 7 52 6 90 -2z m-158 -15 c11 -11 46 -28 77
-37 31 -10 57 -18 59 -20 8 -5 -24 -44 -37 -44 -27 0 -129 64 -145 92 -17 27
-16 28 4 28 11 0 30 -9 42 -19z m288 -21 c-29 -36 -96 -77 -107 -66 -18 18 77
106 113 106 l26 0 -32 -40z"/>
<path d="M5024 4786 c-12 -31 0 -51 31 -51 27 0 30 3 30 30 0 25 -4 30 -28 33
-17 2 -29 -2 -33 -12z"/>
<path d="M5535 4780 c-4 -12 -1 -27 5 -35 27 -33 78 -5 65 35 -4 14 -15 20
-35 20 -20 0 -31 -6 -35 -20z"/>
<path d="M5257 4608 c-19 -7 -26 -15 -23 -25 3 -8 6 -23 6 -34 0 -17 5 -18 39
-13 31 5 46 2 70 -15 21 -15 38 -20 55 -15 15 3 26 9 26 12 0 17 -57 75 -87
87 -40 17 -47 17 -86 3z m76 -19 c12 -6 32 -21 45 -32 41 -38 19 -52 -26 -16
-18 14 -37 19 -61 17 -27 -2 -37 1 -39 14 -5 25 45 35 81 17z"/>
<path d="M5273 4520 c-27 -11 -27 -12 -8 -50 19 -37 44 -38 75 -5 21 22 22 27
9 39 -20 20 -51 26 -76 16z m53 -21 c3 -6 -1 -18 -10 -27 -16 -16 -18 -16 -31
2 -8 10 -12 23 -9 27 7 13 42 11 50 -2z"/>
<path d="M5294 4362 c-12 -2 -30 -12 -40 -23 -16 -18 -16 -20 1 -39 19 -21 60
-26 84 -11 12 8 12 14 1 40 -15 36 -17 38 -46 33z m29 -36 c7 -18 -1 -26 -28
-26 -29 0 -37 10 -24 27 15 17 45 17 52 -1z"/>
<path d="M5032 4071 c-8 -5 -12 -21 -10 -37 3 -25 7 -29 33 -29 24 0 31 5 33
23 6 39 -25 63 -56 43z"/>
<path d="M5546 4067 c-21 -16 -18 -45 7 -61 37 -23 77 35 41 61 -10 7 -21 13
-24 13 -3 0 -14 -6 -24 -13z"/>
<path d="M2322 4854 c-27 -18 -29 -55 -4 -77 25 -22 48 -21 72 3 23 23 25 40
8 62 -20 25 -51 30 -76 12z"/>
<path d="M2489 4863 c-24 -6 -41 -50 -29 -73 25 -47 100 -27 100 26 0 20 -34
56 -50 53 -3 -1 -12 -3 -21 -6z"/>
<path d="M4481 4851 c-12 -12 -21 -27 -21 -34 0 -24 31 -57 55 -57 23 0 55 32
55 55 0 18 -23 43 -47 50 -15 4 -28 0 -42 -14z"/>
<path d="M4642 4854 c-43 -30 -21 -94 32 -94 22 0 46 28 46 55 0 20 -32 55
-50 55 -3 0 -16 -7 -28 -16z"/>
<path d="M2585 3891 c-3 -2 -5 -19 -5 -36 0 -28 4 -32 25 -32 22 0 25 4 25 36
0 30 -4 37 -20 37 -12 0 -23 -2 -25 -5z m35 -31 c0 -5 -4 -10 -10 -10 -5 0
-10 5 -10 10 0 6 5 10 10 10 6 0 10 -4 10 -10z"/>
<path d="M4407 3892 c-28 -6 -19 -64 11 -68 19 -3 22 1 22 30 0 38 -6 45 -33
38z"/>
<path d="M2580 3795 c-29 -35 20 -74 56 -45 18 16 18 25 -2 44 -19 20 -38 20
-54 1z"/>
<path d="M4392 3801 c-8 -4 -12 -19 -10 -32 2 -19 9 -24 33 -24 33 0 45 25 25
50 -14 17 -29 19 -48 6z"/>
<path d="M2446 3764 c-21 -21 -20 -47 2 -67 24 -22 55 -21 75 1 22 24 21 45
-1 65 -23 21 -56 22 -76 1z"/>
<path d="M4494 3755 c-15 -23 -15 -27 0 -50 27 -40 96 -25 96 21 0 55 -66 75
-96 29z"/>
<path d="M3187 3199 c-24 -14 -22 -56 3 -64 25 -8 50 10 50 36 0 24 -30 40
-53 28z"/>
<path d="M3796 3194 c-19 -19 -20 -36 -4 -52 7 -7 18 -12 24 -12 14 0 44 27
44 40 0 5 -7 16 -16 24 -8 9 -19 16 -24 16 -5 0 -16 -7 -24 -16z"/>
<path d="M605 1990 c3 -5 11 -10 16 -10 6 0 7 5 4 10 -3 6 -11 10 -16 10 -6 0
-7 -4 -4 -10z"/>
<path d="M51 1355 c0 -5 17 -30 39 -55 22 -25 39 -40 39 -35 0 6 -17 30 -39
55 -22 25 -39 41 -39 35z"/>
<path d="M6510 905 c-7 -9 -11 -18 -8 -20 3 -3 11 1 18 10 7 9 11 18 8 20 -3
3 -11 -1 -18 -10z"/>
<path d="M700 1232 c0 -5 7 -15 15 -22 8 -7 15 -8 15 -2 0 5 -7 15 -15 22 -8
7 -15 8 -15 2z"/>
<path d="M6770 1012 c0 -5 7 -15 15 -22 8 -7 15 -8 15 -2 0 5 -7 15 -15 22 -8
7 -15 8 -15 2z"/>
<path d="M740 845 c0 -5 16 -28 35 -50 19 -22 34 -35 34 -30 0 6 -15 28 -34
50 -19 22 -35 36 -35 30z"/>
<path d="M200 822 c0 -5 7 -15 15 -22 8 -7 15 -8 15 -2 0 5 -7 15 -15 22 -8 7
-15 8 -15 2z"/>
<path d="M360 820 c-18 -23 -30 -43 -28 -45 3 -3 19 13 37 36 18 22 31 42 28
45 -2 3 -19 -13 -37 -36z"/>
<path d="M6390 902 c0 -5 7 -15 15 -22 8 -7 15 -8 15 -2 0 5 -7 15 -15 22 -8
7 -15 8 -15 2z"/>
</g>
</svg>
